<svg width="91" height="34" viewBox="0 0 91 34" fill="none" xmlns="http://www.w3.org/2000/svg">
<g clip-path="url(#clip0_12122_9998)">
<path d="M30.9476 24.6387V14.3546H31.1308L38.6166 24.6387H40.9723V9.53641H38.3549V19.7946H38.1716L30.6858 9.53641H28.3302V24.6387H30.9476ZM48.3795 24.8718C51.8345 24.8718 53.9546 22.644 53.9546 18.9138C53.9546 15.2095 51.8345 12.9558 48.3795 12.9558C44.9507 12.9558 42.8045 15.2095 42.8045 18.9138C42.8306 22.644 44.9245 24.8718 48.3795 24.8718ZM48.3795 22.6958C46.5473 22.6958 45.5004 21.3229 45.5004 18.9138C45.5004 16.5306 46.5473 15.1318 48.3795 15.1318C50.2117 15.1318 51.2587 16.5306 51.2587 18.9138C51.2587 21.3229 50.2117 22.6958 48.3795 22.6958ZM56.3365 10.3913V13.2666H54.5043V15.339H56.3365V21.582C56.3365 23.8097 57.3834 24.6905 60.0532 24.6905C60.5505 24.6905 61.0478 24.6387 61.4404 24.561V22.5404C61.1263 22.5663 60.9169 22.5922 60.5505 22.5922C59.4512 22.5922 58.9539 22.1 58.9539 20.9603V15.339H61.4404V13.2666H58.9539V10.3913H56.3365ZM63.0109 24.6387H65.6283V13.1889H63.0109V24.6387ZM64.3196 11.2979C65.1833 11.2979 65.89 10.5985 65.89 9.74364C65.89 8.86289 65.1833 8.16347 64.3196 8.16347C63.4558 8.16347 62.7491 8.86289 62.7491 9.74364C62.7491 10.5985 63.4558 11.2979 64.3196 11.2979ZM72.8 24.8718C76.255 24.8718 78.3751 22.644 78.3751 18.9138C78.3751 15.2095 76.255 12.9558 72.8 12.9558C69.3712 12.9558 67.2249 15.2095 67.2249 18.9138C67.2249 22.644 69.3188 24.8718 72.8 24.8718ZM72.8 22.6958C70.9678 22.6958 69.9208 21.3229 69.9208 18.9138C69.9208 16.5306 70.9678 15.1318 72.8 15.1318C74.606 15.1318 75.6791 16.5306 75.6791 18.9138C75.653 21.3229 74.606 22.6958 72.8 22.6958ZM79.9193 24.6387H82.5367V17.9812C82.5367 16.2975 83.5314 15.2354 85.0756 15.2354C86.6722 15.2354 87.4051 16.1161 87.4051 17.8517V24.6387H90.0225V17.23C90.0225 14.4841 88.6091 12.9558 86.0441 12.9558C84.3166 12.9558 83.1649 13.7329 82.6153 15.0281H82.432V13.1889H79.8932C79.9193 13.1889 79.9193 24.6387 79.9193 24.6387Z" fill="#737373"/>
<path fill-rule="evenodd" clip-rule="evenodd" d="M3.23368 8.56979C3.99548 9.18436 4.27102 9.13584 5.69737 9.03881L19.1342 8.23016C19.426 8.23016 19.1829 7.93905 19.0856 7.90671L16.8488 6.3056C16.4274 5.98214 15.8439 5.59399 14.7579 5.69103L1.7587 6.64523C1.28865 6.69374 1.1914 6.93634 1.38591 7.11424L3.23368 8.56979ZM4.0441 11.6911V25.7939C4.0441 26.554 4.4169 26.8289 5.27595 26.7804L20.0419 25.9232C20.901 25.8747 20.9982 25.3572 20.9982 24.7426V10.737C20.9982 10.1224 20.7551 9.78275 20.2364 9.83127L4.8059 10.737C4.23861 10.7855 4.0441 11.0766 4.0441 11.6911ZM18.6156 12.4513C18.7128 12.8718 18.6156 13.3084 18.1942 13.3569L17.481 13.5025V23.9178C16.865 24.2413 16.2978 24.4353 15.8115 24.4353C15.0497 24.4353 14.8552 24.1927 14.2879 23.4811L9.63605 16.1872V23.2385L11.111 23.562C11.111 23.562 11.111 24.4192 9.9278 24.4192L6.65368 24.6132C6.55643 24.4192 6.65368 23.9502 6.97785 23.8531L7.8369 23.6105V14.295L6.65368 14.1979C6.55643 13.7774 6.79955 13.1629 7.4641 13.1144L10.9814 12.8718L15.8277 20.2466V13.7289L14.5959 13.5834C14.4986 13.0658 14.8876 12.6777 15.3577 12.6292L18.6156 12.4513ZM0.67273 5.3514L14.2069 4.36486C15.8601 4.2193 16.2978 4.31634 17.3351 5.07646L21.6466 8.10078C22.3597 8.61831 22.6029 8.76387 22.6029 9.32992V25.9394C22.6029 26.9745 22.2301 27.589 20.901 27.6861L5.19491 28.6403C4.18998 28.6888 3.71993 28.5432 3.20126 27.8801L0.00818032 23.7561C-0.559118 22.996 -0.802246 22.4299 -0.802246 21.7668V7.00103C-0.802246 6.14387 -0.413242 5.44844 0.67273 5.3514Z" fill="#737373"/>
</g>
<defs>
<clipPath id="clip0_12122_9998">
<rect width="90.95" height="34" fill="white"/>
</clipPath>
</defs>
</svg>
