<svg width="120" height="34" viewBox="0 0 120 34" fill="none" xmlns="http://www.w3.org/2000/svg">
<g clip-path="url(#clip0_12122_10002)">
<path fill-rule="evenodd" clip-rule="evenodd" d="M55.0285 20.7244C54.2028 20.9148 53.7757 20.6608 53.7757 20.1139C53.7757 19.3646 54.5505 19.0647 55.6573 19.0647C56.1441 19.0647 56.6034 19.1067 56.6034 19.1067C56.6034 19.4275 55.9064 20.522 55.0285 20.7244ZM55.8686 13.2225C53.2257 13.2225 51.3282 14.1944 51.3282 14.1944V17.0514C51.3282 17.0514 53.4232 15.847 55.1228 15.847C56.4787 15.847 56.6454 16.5787 56.584 17.1856C56.584 17.1856 56.1925 17.0821 54.9991 17.0821C52.186 17.0821 50.7665 18.3606 50.7665 20.4103C50.7665 22.3548 52.3619 23.1673 53.7065 23.1673C55.6679 23.1673 56.5306 21.8489 56.7952 21.2236C56.9793 20.7898 57.0132 20.4973 57.1778 20.4973C57.3668 20.4973 57.3032 20.7071 57.2937 21.1388C57.2781 21.8952 57.3142 22.4668 57.4339 22.9487H60.0351V18.2698C60.0351 15.3486 59.0014 13.2225 55.8686 13.2225Z" fill="#737373"/>
<path fill-rule="evenodd" clip-rule="evenodd" d="M72.9888 18.1997C72.9888 17.3451 73.7833 16.5668 75.2416 16.5668C76.8303 16.5668 78.1089 17.332 78.3954 17.5058V14.1984C78.3954 14.1984 77.3857 13.2262 74.9039 13.2262C72.2879 13.2262 70.1092 14.757 70.1092 18.052C70.1092 21.3467 72.0865 23.1738 74.8969 23.1738C77.0925 23.1738 78.401 21.9674 78.401 21.9674V18.8264C77.987 19.0578 76.8335 19.8587 75.2575 19.8587C73.589 19.8587 72.9888 19.0906 72.9888 18.1997ZM38.2226 13.4428C38.2229 13.4449 38.3886 14.1557 38.1703 15.0852C38.059 15.5579 37.8544 15.9599 38.1014 15.9599C38.2717 15.9599 38.272 15.8186 38.4935 15.312C38.8175 14.5715 39.5004 13.2237 41.0961 13.2237C42.6131 13.2237 43.3278 14.1454 43.5645 15.0085C43.7447 15.6642 43.5871 15.9599 43.8068 15.9599C43.963 15.9599 44.0171 15.6197 44.2092 15.1894C44.5544 14.4185 45.3051 13.2237 46.8235 13.2237C49.1145 13.2237 49.9892 14.8781 49.9892 17.3599V22.952H46.5857V17.7966C46.5857 16.9371 46.4469 16.1033 45.6633 16.1033C44.9373 16.1033 44.5989 17.39 44.5989 18.2205V22.9541H41.1329V17.7969C41.1329 16.6972 40.9778 16.1037 40.2048 16.1037C39.5357 16.1037 39.1453 17.2875 39.1453 18.2209V22.9523H35.6931V13.4428H38.2226ZM61.168 13.4558C61.1695 13.4565 61.757 13.7953 62.8974 13.7953C64.0399 13.7953 64.62 13.4558 64.62 13.4558V22.9545H61.168V13.4558ZM89.6667 13.4558C89.6682 13.4565 90.2557 13.7953 91.3964 13.7953C92.5386 13.7953 93.119 13.4558 93.119 13.4558V22.9545H89.6667V13.4558ZM69.1893 10.5639V22.9545H65.737V10.5639H69.1893ZM82.498 10.5639C82.4984 10.565 82.6411 10.9211 82.6411 11.9802C82.6411 13.5442 82.3009 14.817 82.1401 15.3021C82.055 15.5589 81.9031 15.9553 82.1211 15.9624C82.2468 15.9662 82.3224 15.7769 82.4764 15.4483C82.6298 15.1194 83.39 13.2259 85.3882 13.2259C88.1406 13.2259 88.5454 15.4798 88.5454 17.9206V22.9541H85.0932V17.7139C85.0932 16.6392 84.8678 16.1054 84.1475 16.1054C83.2777 16.1054 82.9703 17.4521 82.9703 18.223V22.9541H79.5181V10.5635L82.498 10.5639ZM96.8146 13.4428C96.815 13.4449 96.9807 14.1557 96.7624 15.0852C96.6511 15.5579 96.4465 15.9599 96.6935 15.9599C96.8638 15.9599 96.8641 15.8186 97.0856 15.312C97.4092 14.5715 98.0925 13.2237 99.6882 13.2237C101.274 13.2237 101.904 14.1497 102.157 15.0085C102.326 15.584 102.179 15.9599 102.399 15.9599C102.555 15.9599 102.609 15.6197 102.801 15.1894C103.146 14.4185 103.897 13.2237 105.416 13.2237C107.707 13.2237 108.581 14.8781 108.581 17.3599V22.952H105.178V17.7966C105.178 16.9371 105.039 16.1033 104.255 16.1033C103.529 16.1033 103.191 17.39 103.191 18.2205V22.9541H99.7246V17.7969C99.7246 16.6972 99.5702 16.1037 98.7969 16.1037C98.1278 16.1037 97.7374 17.2875 97.7374 18.2209V22.9523H94.2852V13.4428H96.8146ZM62.8836 10.4678C61.7171 10.4678 60.7706 11.0853 60.7706 11.847C60.7706 12.6087 61.7167 13.2262 62.8836 13.2262C64.0508 13.2262 64.9969 12.6087 64.9969 11.847C64.9969 11.0853 64.0512 10.4678 62.8836 10.4678ZM91.3826 10.4678C90.2157 10.4678 89.2693 11.0853 89.2693 11.847C89.2693 12.6087 90.2154 13.2262 91.3826 13.2262C92.5495 13.2262 93.4959 12.6087 93.4959 11.847C93.4959 11.0853 92.5499 10.4678 91.3826 10.4678Z" fill="#737373"/>
<path fill-rule="evenodd" clip-rule="evenodd" d="M114.462 20.9053C113.671 20.9053 113.088 19.9016 113.088 18.503C113.088 17.1446 113.686 16.1014 114.435 16.1014C115.395 16.1014 115.804 16.9821 115.804 18.503C115.804 20.0853 115.427 20.9053 114.462 20.9053ZM115.409 13.2204C113.635 13.2204 112.822 14.5505 112.468 15.3083C112.235 15.8089 112.247 15.9562 112.076 15.9562C111.83 15.9562 112.034 15.5542 112.145 15.0815C112.364 14.1506 112.198 13.4394 112.198 13.4394H109.67V25.5721H113.121V21.7256C113.529 22.4184 114.285 23.1585 115.451 23.1585C117.947 23.1585 119.203 21.047 119.203 18.1942C119.203 14.961 117.7 13.2204 115.41 13.2204" fill="#737373"/>
<path fill-rule="evenodd" clip-rule="evenodd" d="M23.4895 16.0912C23.7216 16.0637 23.9439 16.0623 24.1484 16.0912C24.2668 15.8199 24.2869 15.3525 24.1806 14.8434C24.0226 14.0867 23.8085 13.6289 23.3662 13.7002C22.9239 13.7716 22.9077 14.3199 23.066 15.0763C23.155 15.502 23.3132 15.8658 23.4895 16.0912Z" fill="#737373"/>
<path fill-rule="evenodd" clip-rule="evenodd" d="M19.6949 16.6901C20.0111 16.8289 20.2058 16.9211 20.2817 16.8406C20.3308 16.7904 20.316 16.6947 20.2404 16.5714C20.0842 16.3167 19.7631 16.0581 19.4222 15.9129C18.7255 15.6129 17.8943 15.7125 17.2531 16.1732C17.0414 16.3283 16.8408 16.5431 16.8694 16.6735C16.8786 16.7155 16.9104 16.7473 16.9846 16.7579C17.1591 16.7777 17.7688 16.4696 18.4715 16.4265C18.9672 16.3961 19.3784 16.5512 19.6949 16.6901Z" fill="#737373"/>
<path fill-rule="evenodd" clip-rule="evenodd" d="M19.0599 17.0533C18.6476 17.1183 18.4204 17.2543 18.2745 17.3804C18.1502 17.4892 18.0732 17.6097 18.0739 17.6941C18.0742 17.7344 18.0915 17.7577 18.1053 17.7694C18.124 17.786 18.1463 17.7952 18.1731 17.7952C18.2661 17.7952 18.4748 17.7114 18.4748 17.7114C19.0482 17.5062 19.4266 17.5313 19.8014 17.5737C20.0084 17.597 20.1066 17.6097 20.1519 17.5387C20.1653 17.5182 20.1815 17.474 20.1402 17.4069C20.0438 17.2504 19.6272 16.9858 19.0599 17.0533Z" fill="#737373"/>
<path fill-rule="evenodd" clip-rule="evenodd" d="M22.2091 18.3859C22.4889 18.5234 22.7969 18.4693 22.8973 18.2655C22.9976 18.0616 22.852 17.7847 22.5722 17.6472C22.2924 17.5098 21.9844 17.5639 21.884 17.7677C21.7837 17.9719 21.9293 18.2485 22.2091 18.3859Z" fill="#737373"/>
<path fill-rule="evenodd" clip-rule="evenodd" d="M24.0082 16.8143C23.7811 16.8104 23.5924 17.0598 23.5871 17.3718C23.5818 17.6837 23.762 17.9391 23.9891 17.943C24.2163 17.9469 24.4049 17.6975 24.4102 17.3855C24.4155 17.074 24.2354 16.8182 24.0082 16.8143Z" fill="#737373"/>
<path fill-rule="evenodd" clip-rule="evenodd" d="M8.73952 22.4348C8.68299 22.3638 8.59008 22.3853 8.5 22.4065C8.43711 22.4214 8.3661 22.4376 8.28803 22.4365C8.12092 22.4334 7.97926 22.362 7.89977 22.2398C7.79626 22.0808 7.80227 21.8437 7.91638 21.5724L7.96972 21.4509C8.15201 21.0418 8.45689 20.3575 8.11457 19.7053C7.85667 19.2143 7.43627 18.9087 6.93073 18.8444C6.44532 18.7829 5.94578 18.9627 5.62713 19.3143C5.12441 19.8689 5.04563 20.6239 5.14278 20.8906C5.17846 20.9881 5.23428 21.0153 5.27455 21.021C5.36005 21.0323 5.48652 20.9701 5.56565 20.7571L5.58827 20.6878C5.62359 20.5751 5.6893 20.3653 5.79705 20.1971C5.92706 19.9943 6.12914 19.8548 6.36654 19.8036C6.60818 19.7516 6.85548 19.7979 7.0625 19.9336C7.41472 20.1639 7.55038 20.5956 7.39988 21.0072C7.32216 21.2202 7.19569 21.6275 7.22359 21.9621C7.28012 22.6393 7.69663 22.9114 8.07076 22.9403C8.43464 22.9541 8.689 22.7495 8.7533 22.6005C8.7911 22.5121 8.7593 22.4585 8.73846 22.4355" fill="#737373"/>
<path fill-rule="evenodd" clip-rule="evenodd" d="M12.2005 9.99592C13.3875 8.62448 14.8483 7.43217 16.1572 6.7627C16.2024 6.73939 16.2505 6.7885 16.2261 6.83301C16.1222 7.02131 15.9219 7.42439 15.8587 7.72998C15.8488 7.77767 15.9007 7.81336 15.941 7.78616C16.7553 7.23115 18.1716 6.63623 19.4141 6.55992C19.4674 6.55674 19.4932 6.62493 19.4508 6.65778C19.2618 6.80263 19.0551 7.00329 18.9043 7.20607C18.8785 7.24069 18.9029 7.29015 18.946 7.29051C19.8182 7.29686 21.048 7.6021 21.8496 8.05182C21.9036 8.0822 21.8651 8.18713 21.8044 8.17335C20.5916 7.89532 18.6065 7.68441 16.544 8.18748C14.7031 8.6365 13.2977 9.32999 12.2729 10.0754C12.2209 10.1132 12.1584 10.0443 12.2005 9.99592ZM18.1115 23.2835L18.1119 23.2842L18.1126 23.2856L18.1115 23.2835ZM23.0059 23.8611C23.0412 23.8462 23.0652 23.8063 23.0613 23.7664C23.0564 23.7173 23.0126 23.6816 22.9635 23.6866C22.9635 23.6866 20.4308 24.0614 18.038 23.1856C18.2988 22.3384 18.9915 22.6444 20.039 22.7288C21.9269 22.8415 23.6192 22.5656 24.8698 22.2067C25.9533 21.8958 27.3766 21.2825 28.482 20.4099C28.8548 21.2288 28.9865 22.1304 28.9865 22.1304C28.9865 22.1304 29.2752 22.0788 29.5164 22.2272C29.7443 22.3674 29.9114 22.6589 29.7973 23.4128C29.5648 24.8209 28.9664 25.9641 27.9603 27.0159C27.3477 27.6751 26.6044 28.2481 25.7537 28.665C25.3018 28.9024 24.821 29.1076 24.3126 29.2733C20.5198 30.5123 16.6373 29.1504 15.386 26.2259C15.286 26.0062 15.2016 25.7758 15.1352 25.5353C14.6021 23.6081 15.0546 21.2959 16.4698 19.8404C16.5571 19.7478 16.6461 19.638 16.6461 19.5005C16.6461 19.3857 16.573 19.2646 16.5098 19.1784C16.0145 18.4601 14.2993 17.2364 14.6437 14.868C14.891 13.1666 16.379 11.9683 17.7664 12.0393L18.1179 12.0594C18.7192 12.0951 19.2434 12.1721 19.7384 12.193C20.5668 12.229 21.3115 12.1085 22.194 11.3734C22.4915 11.1253 22.7303 10.9102 23.1341 10.842C23.1765 10.8346 23.2821 10.7968 23.493 10.8067C23.7085 10.8184 23.9134 10.8774 24.0975 10.9999C24.8048 11.4705 24.9051 12.6105 24.9418 13.4443C24.9627 13.9201 25.0203 15.0718 25.04 15.4025C25.0849 16.1585 25.2838 16.2649 25.6858 16.3973C25.9119 16.4719 26.1218 16.5273 26.4313 16.6143C27.3674 16.8771 27.9224 17.1438 28.2725 17.4865C28.4813 17.7006 28.5785 17.9281 28.6085 18.145C28.7187 18.9505 27.9832 19.9453 26.0356 20.8494C23.9067 21.8375 21.3239 22.0876 19.5395 21.8887L18.9142 21.8181C17.4869 21.6259 16.6726 23.4703 17.5293 24.7344C18.0815 25.549 19.5854 26.079 21.09 26.0793C24.5398 26.0797 27.1915 24.6065 28.1779 23.3343L28.2567 23.222C28.3054 23.1489 28.2651 23.1086 28.2047 23.1499C27.3989 23.7014 23.8195 25.8907 19.9906 25.2318C19.9906 25.2318 19.5254 25.1551 19.1007 24.9902C18.7633 24.8587 18.0568 24.5337 17.9709 23.8091C21.0607 24.7648 23.0059 23.8611 23.0059 23.8611ZM6.03468 16.5182C4.96 16.727 4.01286 17.336 3.43384 18.1775C3.08762 17.8889 2.44289 17.33 2.32878 17.112C1.40425 15.3562 3.33774 11.9428 4.68868 10.015C8.02717 5.25102 13.2557 1.6451 15.676 2.29937C16.0696 2.41065 17.3728 3.92163 17.3728 3.92163C17.3728 3.92163 14.9532 5.26409 12.7095 7.13541C9.68617 9.46317 7.40293 12.8465 6.03468 16.5182ZM7.84029 24.5747C7.67778 24.6026 7.51174 24.6136 7.34429 24.6093C5.72733 24.5659 3.98107 23.1104 3.80761 21.3842C3.61578 19.4762 4.59083 18.0079 6.31695 17.6596C6.52326 17.6179 6.77268 17.5939 7.04152 17.608C8.0088 17.661 9.43393 18.4036 9.7593 20.5106C10.0476 22.3766 9.58973 24.2765 7.84029 24.5747ZM29.7422 21.1959C29.7284 21.1468 29.638 20.8172 29.514 20.4198C29.39 20.022 29.2617 19.7425 29.2617 19.7425C29.7591 18.9982 29.768 18.3322 29.7016 17.9553C29.6309 17.4879 29.4362 17.0898 29.0441 16.6778C28.652 16.2663 27.8497 15.8445 26.7224 15.5279L26.131 15.3636C26.1281 15.3393 26.0999 13.9692 26.0744 13.381C26.0557 12.9557 26.0193 12.2919 25.8134 11.6383C25.5678 10.7533 25.1404 9.97896 24.6066 9.48366C26.0797 7.95679 26.9993 6.27447 26.9969 4.83168C26.9926 2.05667 23.5845 1.21693 19.3844 2.95612L18.4945 3.33378C18.4906 3.32989 16.8857 1.75532 16.8616 1.73413C12.0729 -2.44269 -2.89905 14.1992 1.88753 18.2411L2.93359 19.1275C2.66227 19.8305 2.55558 20.636 2.64284 21.5019C2.75448 22.6143 3.32821 23.6805 4.25839 24.5044C5.14124 25.2866 6.30211 25.7819 7.42836 25.7808C9.2912 30.0735 13.5475 32.7068 18.5379 32.8552C23.8912 33.0142 28.3849 30.5024 30.2679 25.9903C30.3912 25.6737 30.9137 24.2469 30.9137 22.9871C30.9137 21.7213 30.1979 21.1959 29.7422 21.1959Z" fill="#737373"/>
</g>
<defs>
<clipPath id="clip0_12122_10002">
<rect width="119" height="34" fill="white" transform="translate(0.18335)"/>
</clipPath>
</defs>
</svg>
