<svg width="110" height="34" viewBox="0 0 110 34" fill="none" xmlns="http://www.w3.org/2000/svg">
<g clip-path="url(#clip0_12122_10005)">
<path fill-rule="evenodd" clip-rule="evenodd" d="M12.7605 6.1212L2.22009 10.3557C1.63394 10.5912 1.64002 11.3997 2.22984 11.6267L12.8141 15.7018C13.7441 16.0599 14.7798 16.0599 15.7097 15.7018L26.2942 11.6265C26.8839 11.3997 26.8902 10.5914 26.3038 10.3558L15.7637 6.12105C14.8021 5.73472 13.7219 5.73472 12.7603 6.12105L12.7605 6.1212ZM43.7376 19.05L41.8461 14.0995C41.7689 13.897 41.4739 13.897 41.3966 14.0995L39.5054 19.0503C39.4919 19.0855 39.4875 19.1233 39.4924 19.1605C39.4972 19.1977 39.5113 19.2333 39.5334 19.2641C39.5555 19.2949 39.5849 19.32 39.6192 19.3374C39.6535 19.3548 39.6915 19.3638 39.7302 19.3638H43.5128C43.5515 19.3638 43.5895 19.3547 43.6238 19.3373C43.6581 19.32 43.6875 19.2948 43.7096 19.264C43.7316 19.2331 43.7457 19.1976 43.7506 19.1604C43.7554 19.1231 43.7509 19.0853 43.7375 19.0501L43.7376 19.05ZM44.6111 21.8326H38.6317C38.5828 21.8326 38.5351 21.8471 38.4949 21.8742C38.4547 21.9014 38.4241 21.9398 38.4071 21.9843L37.2298 25.0646C37.2128 25.1091 37.1821 25.1476 37.142 25.1747C37.1018 25.2018 37.0541 25.2163 37.0051 25.2164H34.4134C34.3742 25.2163 34.3356 25.207 34.301 25.1892C34.2664 25.1713 34.2368 25.1455 34.2149 25.114C34.1929 25.0825 34.1792 25.0463 34.1751 25.0084C34.1709 24.9706 34.1763 24.9324 34.1909 24.8971L40.158 10.4648C40.1758 10.4217 40.2066 10.3847 40.2463 10.3587C40.2859 10.3328 40.3327 10.3189 40.3806 10.3189H42.8623C42.9601 10.3189 43.0481 10.3767 43.0847 10.4648L49.0516 24.8969C49.0662 24.9322 49.0717 24.9705 49.0676 25.0084C49.0635 25.0462 49.0498 25.0825 49.0279 25.1141C49.0059 25.1456 48.9763 25.1715 48.9416 25.1893C48.907 25.2072 48.8684 25.2165 48.8292 25.2165H46.2379C46.1889 25.2165 46.1412 25.2019 46.101 25.1748C46.0608 25.1476 46.0302 25.1092 46.0132 25.0646L44.8358 21.9843C44.8188 21.9398 44.7881 21.9014 44.7479 21.8742C44.7078 21.8471 44.66 21.8326 44.6111 21.8326ZM50.2659 15.3839H52.4827C52.5462 15.3839 52.6072 15.4085 52.6522 15.4521C52.6971 15.4957 52.7224 15.5549 52.7224 15.6167V24.9836C52.7224 25.0454 52.6971 25.1045 52.6522 25.1482C52.6072 25.1918 52.5462 25.2164 52.4827 25.2164H50.2659C50.2024 25.2164 50.1414 25.1918 50.0964 25.1482C50.0515 25.1045 50.0262 25.0454 50.0262 24.9836V15.6165C50.0262 15.5548 50.0515 15.4956 50.0964 15.4519C50.1414 15.4083 50.2024 15.3838 50.2659 15.3838V15.3839ZM60.8069 17.6625C60.8069 17.7242 60.7817 17.7834 60.7367 17.827C60.6918 17.8707 60.6308 17.8952 60.5672 17.8952H60.5001C59.404 17.8952 58.6001 18.1506 58.0887 18.6613C57.5771 19.1721 57.3217 20.0164 57.3217 21.194V24.9836C57.3217 25.0454 57.2964 25.1045 57.2515 25.1482C57.2065 25.1918 57.1456 25.2164 57.082 25.2164H54.887C54.8234 25.2164 54.7625 25.1918 54.7175 25.1482C54.6726 25.1045 54.6473 25.0454 54.6473 24.9836V15.6165C54.6473 15.5548 54.6726 15.4956 54.7175 15.4519C54.7625 15.4083 54.8234 15.3838 54.887 15.3838H57.06C57.1235 15.3838 57.1845 15.4083 57.2294 15.4519C57.2744 15.4956 57.2996 15.5548 57.2996 15.6165V17.4693H57.3436C57.6066 16.7032 58.0231 16.1147 58.5932 15.7029C59.1629 15.2916 59.8644 15.0857 60.6973 15.0857H60.8069V17.6623V17.6625ZM66.8681 17.5759C66.8045 17.5759 66.7436 17.6004 66.6986 17.644C66.6537 17.6877 66.6284 17.7469 66.6284 17.8086V21.7047C66.6284 22.102 66.7083 22.3858 66.8694 22.556C67.03 22.7262 67.3077 22.8114 67.7023 22.8114H67.923C67.9865 22.8114 68.0475 22.8359 68.0924 22.8796C68.1374 22.9232 68.1626 22.9824 68.1626 23.0441V25.0047C68.1626 25.0665 68.1374 25.1256 68.0924 25.1693C68.0475 25.2129 67.9865 25.2375 67.923 25.2375H66.9789C65.9998 25.2375 65.2473 24.9928 64.7212 24.5033C64.195 24.0138 63.932 23.2869 63.932 22.3219V17.8086C63.932 17.7469 63.9067 17.6877 63.8618 17.644C63.8168 17.6004 63.7558 17.5759 63.6923 17.5759H62.3086C62.245 17.5759 62.184 17.5514 62.1391 17.5077C62.0941 17.4641 62.0689 17.4049 62.0689 17.3432V15.6165C62.0689 15.5548 62.0941 15.4956 62.1391 15.4519C62.184 15.4083 62.245 15.3838 62.3086 15.3838H63.6924C63.756 15.3838 63.817 15.3593 63.8619 15.3156C63.9069 15.272 63.9321 15.2128 63.9321 15.1511V11.6793C63.9321 11.6176 63.9574 11.5584 64.0023 11.5147C64.0473 11.4711 64.1082 11.4466 64.1718 11.4466H66.3886C66.4521 11.4466 66.5131 11.4711 66.558 11.5147C66.603 11.5584 66.6283 11.6176 66.6283 11.6793V15.1511C66.6283 15.2128 66.6535 15.272 66.6985 15.3156C66.7434 15.3593 66.8044 15.3838 66.868 15.3838H68.4709C68.5345 15.3838 68.5954 15.4083 68.6404 15.4519C68.6853 15.4956 68.7106 15.5548 68.7106 15.6165V17.3433C68.7106 17.405 68.6853 17.4642 68.6404 17.5079C68.5954 17.5515 68.5345 17.576 68.4709 17.576H66.8681V17.5759ZM77.0187 22.3006C77.5229 21.7899 77.7749 21.1231 77.7749 20.3C77.7749 19.4774 77.5229 18.8102 77.0187 18.2995C76.5146 17.7887 75.8531 17.5334 75.0348 17.5334C74.2163 17.5334 73.5554 17.7887 73.0511 18.2995C72.5471 18.8102 72.2949 19.4774 72.2949 20.3C72.2949 21.1231 72.5471 21.7899 73.0511 22.3006C73.5554 22.8114 74.2163 23.0668 75.0348 23.0668C75.8531 23.0668 76.5146 22.8114 77.0187 22.3006ZM71.9004 24.9183C71.1551 24.507 70.5667 23.9074 70.1358 23.12C69.7046 22.3326 69.4891 21.3927 69.4891 20.3C69.4891 19.2077 69.7046 18.2675 70.1358 17.4802C70.5667 16.6928 71.1551 16.0936 71.9004 15.6818C72.6457 15.2704 73.4638 15.0646 74.3553 15.0646C75.1444 15.0646 75.8202 15.2136 76.3832 15.5115C76.9454 15.8094 77.3947 16.2281 77.7311 16.7672H77.7749V15.6165C77.7749 15.5548 77.8001 15.4956 77.8451 15.4519C77.8901 15.4083 77.951 15.3838 78.0146 15.3838H80.2094C80.273 15.3838 80.334 15.4083 80.3789 15.4519C80.4239 15.4956 80.4491 15.5548 80.4491 15.6165V24.9835C80.4491 25.0452 80.4239 25.1044 80.3789 25.148C80.334 25.1917 80.273 25.2162 80.2094 25.2162H78.0146C77.951 25.2162 77.8901 25.1917 77.8451 25.148C77.8001 25.1044 77.7749 25.0452 77.7749 24.9835V23.8329H77.7311C77.3947 24.3723 76.9454 24.7906 76.383 25.0885C75.8202 25.3864 75.1446 25.5353 74.3553 25.5353C73.4638 25.5353 72.6457 25.3296 71.9004 24.9183ZM89.5774 22.3006C90.0815 21.7899 90.3335 21.1231 90.3335 20.3C90.3335 19.4774 90.0815 18.8102 89.5774 18.2995C89.0733 17.7887 88.4119 17.5334 87.5936 17.5334C86.7751 17.5334 86.114 17.7887 85.6099 18.2995C85.1059 18.8102 84.8535 19.4774 84.8535 20.3C84.8535 21.1231 85.1059 21.7899 85.6099 22.3006C86.114 22.8114 86.7751 23.0668 87.5936 23.0668C88.4119 23.0668 89.0733 22.8114 89.5774 22.3006ZM86.2455 25.0885C85.6829 24.7906 85.2334 24.3723 84.8975 23.8329H84.8535V24.9835C84.8535 25.0452 84.8283 25.1044 84.7833 25.148C84.7384 25.1917 84.6774 25.2162 84.6138 25.2162H82.3971C82.3335 25.2162 82.2726 25.1917 82.2276 25.148C82.1826 25.1044 82.1574 25.0452 82.1574 24.9835V10.5512C82.1574 10.4895 82.1826 10.4303 82.2276 10.3866C82.2726 10.343 82.3335 10.3185 82.3971 10.3185H84.6138C84.6774 10.3185 84.7384 10.343 84.7833 10.3866C84.8283 10.4303 84.8535 10.4895 84.8535 10.5512V16.7671H84.8975C85.2334 16.2279 85.6829 15.8094 86.2455 15.5115C86.808 15.2134 87.484 15.0645 88.2732 15.0645C89.1644 15.0645 89.9829 15.2702 90.7282 15.6817C91.4735 16.0934 92.0616 16.6926 92.4927 17.4798C92.9237 18.2677 93.1396 19.2079 93.1396 20.3001C93.1396 21.3929 92.9237 22.3326 92.4929 23.1201C92.0618 23.9075 91.4737 24.5072 90.7284 24.9183C89.9831 25.3298 89.1646 25.5357 88.2734 25.5357C87.4841 25.5357 86.8082 25.3867 86.2457 25.0887L86.2455 25.0885ZM96.8744 25.2164H94.6577C94.5941 25.2164 94.5331 25.1918 94.4882 25.1482C94.4432 25.1045 94.418 25.0454 94.418 24.9836V10.5517C94.418 10.4899 94.4432 10.4307 94.4882 10.3871C94.5331 10.3435 94.5941 10.3189 94.6577 10.3189H96.8744C96.938 10.3189 96.999 10.3435 97.0439 10.3871C97.0889 10.4307 97.1141 10.4899 97.1141 10.5517V24.9836C97.1141 25.0454 97.0889 25.1045 97.0439 25.1482C96.999 25.1918 96.938 25.2164 96.8744 25.2164ZM102.103 17.6612C101.736 17.9396 101.488 18.3414 101.359 18.867C101.324 19.0119 101.44 19.151 101.594 19.151H105.812C105.959 19.151 106.074 19.0237 106.05 18.8835C105.966 18.3862 105.746 17.9898 105.391 17.6932C104.975 17.3456 104.43 17.1719 103.758 17.1719C103.086 17.1719 102.534 17.3349 102.103 17.6612ZM107.507 16.4374C108.369 17.3528 108.8 18.6475 108.8 20.3214V20.5994C108.8 20.6611 108.775 20.7203 108.73 20.764C108.685 20.8076 108.624 20.8322 108.56 20.8322H101.512C101.477 20.8322 101.443 20.8397 101.411 20.8542C101.379 20.8686 101.351 20.8896 101.328 20.9156C101.306 20.9417 101.289 20.9723 101.28 21.0052C101.271 21.0381 101.269 21.0726 101.275 21.1061C101.388 21.728 101.671 22.222 102.125 22.588C102.644 23.0069 103.298 23.2159 104.087 23.2159C105.106 23.2159 106.049 22.8299 106.916 22.0577C107.022 21.9633 107.19 21.9834 107.272 22.098L108.35 23.5999C108.383 23.6466 108.398 23.7037 108.392 23.7604C108.385 23.8171 108.357 23.8694 108.313 23.9074C107.784 24.3569 107.196 24.7363 106.564 25.0354C105.863 25.3687 105.037 25.5357 104.087 25.5357C102.991 25.5357 102.034 25.3191 101.216 24.8865C100.397 24.454 99.7614 23.8439 99.3086 23.0562C98.8555 22.2688 98.629 21.3573 98.629 20.3214C98.629 19.2859 98.8483 18.3709 99.2866 17.576C99.7249 16.7817 100.339 16.1645 101.128 15.7245C101.917 15.2849 102.838 15.0648 103.89 15.0648C105.438 15.0648 106.644 15.5225 107.507 16.4374ZM53.0119 11.921C53.0119 12.7988 52.2789 13.5105 51.3746 13.5105C50.4701 13.5105 49.7371 12.7988 49.7371 11.9209C49.7371 11.0429 50.4703 10.3312 51.3746 10.3312C52.2789 10.3312 53.0119 11.0429 53.0119 11.9209V11.921ZM15.2011 28.1074V17.9272C15.2011 17.7898 15.2436 17.6556 15.3231 17.542C15.4026 17.4283 15.5154 17.3405 15.6469 17.2898L27.4411 12.8451C27.9047 12.6667 28.4075 12.9982 28.4075 13.4825V23.6627C28.4076 23.8001 28.3651 23.9343 28.2856 24.048C28.2061 24.1616 28.0932 24.2494 27.9617 24.3001L16.1675 28.7448C15.7039 28.9232 15.2011 28.5915 15.2011 28.1074ZM8.94664 20.0932L8.94662 20.0932L8.59122 20.26L1.20241 23.6973C0.7342 23.9167 0.13623 23.5853 0.13623 23.0801V13.5251C0.13623 13.3423 0.232749 13.1846 0.362187 13.0659C0.362219 13.0658 0.362251 13.0658 0.362283 13.0658L0.362206 13.0657C0.408672 13.0208 0.460598 12.9817 0.516807 12.9491C0.522201 12.946 0.527635 12.9429 0.533108 12.9399C0.535784 12.9384 0.538469 12.937 0.541162 12.9355C0.607319 12.897 0.684083 12.869 0.765487 12.8534C0.878175 12.8319 0.999755 12.8341 1.1144 12.865C1.13779 12.8713 1.1609 12.8787 1.18358 12.8874L12.3881 17.1978C12.9576 17.4172 13.0024 18.192 12.4469 18.4525C12.4469 18.4525 12.4469 18.4525 12.4469 18.4525V18.4523L8.94664 20.0932Z" fill="#737373"/>
</g>
<defs>
<clipPath id="clip0_12122_10005">
<rect width="108.8" height="34" fill="white" transform="translate(0.416687)"/>
</clipPath>
</defs>
</svg>
