<svg width="105" height="34" viewBox="0 0 105 34" fill="none" xmlns="http://www.w3.org/2000/svg">
<g clip-path="url(#clip0_12122_10008)">
<path d="M62.1633 9.81676C60.0221 9.81676 57.9291 11.7557 57.6883 14.5573V10.0477H54.6135V23.6452H57.726V17.0635C57.726 15.2198 59.0328 12.619 62.1633 12.619V9.81676Z" fill="#737373"/>
<path d="M94.8121 21.4684V12.1525H96.615C99.019 12.1525 100.973 13.655 100.973 16.7353C100.973 19.8155 99.019 21.4684 96.615 21.4684H94.8121ZM91.7316 23.6471H96.991C100.221 23.6471 104.203 21.5435 104.203 16.7353C104.203 12.0022 100.221 10.0489 96.991 10.0489H91.7316V23.6471Z" fill="#737373"/>
<path d="M79.9458 16.8857C79.9458 14.4065 81.2229 12.378 83.3264 12.378C85.3549 12.378 86.4818 14.4065 86.4818 16.8857C86.4818 19.365 85.3549 21.3934 83.3264 21.3934C81.2229 21.3934 79.9458 19.365 79.9458 16.8857ZM76.7904 17.0359C76.7904 21.0929 78.8939 23.9478 82.1995 23.9478C84.6035 23.9478 86.031 22.3701 86.7824 19.8157V23.6473H89.8619V10.049H86.7824V13.6552C86.1063 11.2511 84.6789 9.82366 82.4252 9.82366C79.0441 9.82366 76.7904 12.9039 76.7904 17.0359Z" fill="#737373"/>
<path d="M6.64722 23.9478C2.81567 23.9478 0.561829 20.8675 0.561829 17.0359C0.561829 13.0542 3.04106 9.82366 7.77413 9.82366C12.6575 9.82366 14.3103 13.1293 14.3854 15.0075H10.8544C10.7793 13.9557 9.87771 12.378 7.69899 12.378C5.37003 12.378 3.86747 14.4065 3.86747 16.8857C3.86747 19.365 5.37003 21.3934 7.69899 21.3934C9.80257 21.3934 10.7041 19.7406 11.0798 18.0878H7.69899V16.7354H14.793V23.6473H11.6808V19.2898C11.4554 20.8675 10.4787 23.9478 6.64722 23.9478Z" fill="#737373"/>
<path d="M21.1031 23.9476C18.1731 23.9476 16.3701 21.9943 16.3701 18.0876V10.0489H19.5254V18.0876C19.5254 20.116 20.5021 21.0927 22.1549 21.0927C25.3854 21.0927 26.5875 17.1109 26.5875 14.3312V10.0489H29.7428V23.6471H26.6626V18.6135C26.0615 21.3932 24.4088 23.9476 21.1031 23.9476Z" fill="#737373"/>
<path d="M48.5985 9.81653C45.9064 9.81653 44.2081 12.4171 43.6538 14.8216C43.559 11.5992 41.9744 9.81653 39.4389 9.81653C37.2484 9.81653 35.216 11.77 34.6882 14.8605V10.0478H31.6123V23.6464H34.7277V18.7714C34.7277 17.5628 35.2315 12.603 38.3677 12.603C40.3993 12.603 40.6111 14.4356 40.6111 16.9406V23.6464H43.725V18.7714C43.725 17.5628 44.2497 12.603 47.3859 12.603C49.4159 12.603 49.6255 14.4356 49.6255 16.9406V23.6464H52.7437V15.6029C52.7578 11.7441 51.3954 9.81653 48.5985 9.81653Z" fill="#737373"/>
<path d="M68.8472 9.81653C64.8141 9.81653 62.0813 12.9789 62.0813 16.8821C62.0813 21.183 64.6803 23.9477 68.8472 23.9477C72.8802 23.9477 75.6616 20.7854 75.6616 16.8821C75.6616 12.5813 73.0121 9.81653 68.8472 9.81653ZM68.8472 21.5407C66.4992 21.5407 64.9785 19.553 64.9785 16.8821C64.9785 14.2113 66.5044 12.2235 68.8472 12.2235C71.1895 12.2235 72.6546 14.2113 72.6546 16.8821C72.6546 19.553 71.188 21.5407 68.8472 21.5407Z" fill="#737373"/>
</g>
<defs>
<clipPath id="clip0_12122_10008">
<rect width="104.55" height="34" fill="white" transform="translate(0.450012)"/>
</clipPath>
</defs>
</svg>
