<svg width="152" height="44" viewBox="0 0 152 44" fill="none" xmlns="http://www.w3.org/2000/svg">
<path fill-rule="evenodd" clip-rule="evenodd" d="M16.582 20.7813H1.38281V5.58215H16.582V20.7813ZM151.21 20.0522V17.4173H147.938V13.3209L147.828 13.3548L144.755 14.2952L144.694 14.3136V17.4174H139.843V15.6883C139.843 14.8832 140.023 14.2671 140.378 13.8562C140.73 13.4502 141.234 13.2438 141.877 13.2438C142.339 13.2438 142.817 13.3527 143.299 13.5673L143.42 13.6212V10.8463L143.363 10.8254C142.914 10.664 142.303 10.5826 141.546 10.5826C140.591 10.5826 139.724 10.7903 138.968 11.202C138.211 11.6142 137.616 12.2026 137.199 12.9508C136.783 13.6981 136.572 14.5611 136.572 15.5163V17.4173H134.294V20.0522H136.572V31.1527H139.843V20.0522H144.694V27.1064C144.694 30.0117 146.064 31.4839 148.767 31.4839C149.211 31.4839 149.678 31.4319 150.156 31.33C150.642 31.2254 150.972 31.1209 151.167 31.0093L151.21 30.9837V28.3245L151.077 28.4124C150.9 28.5307 150.679 28.6274 150.42 28.6993C150.159 28.7725 149.942 28.8091 149.773 28.8091C149.14 28.8091 148.672 28.6385 148.381 28.3018C148.087 27.9621 147.938 27.368 147.938 26.537V20.0522H151.21ZM126.99 28.8096C125.803 28.8096 124.867 28.4159 124.207 27.6405C123.543 26.8612 123.207 25.7501 123.207 24.3384C123.207 22.8819 123.543 21.742 124.207 20.9489C124.867 20.1611 125.794 19.7612 126.963 19.7612C128.097 19.7612 129 20.1431 129.647 20.8969C130.297 21.6546 130.626 22.7854 130.626 24.2588C130.626 25.7504 130.316 26.8961 129.705 27.6625C129.097 28.4232 128.184 28.8096 126.99 28.8096ZM127.135 17.0864C124.87 17.0864 123.071 17.75 121.789 19.059C120.507 20.368 119.857 22.1796 119.857 24.4438C119.857 26.5943 120.491 28.3242 121.743 29.5844C122.994 30.845 124.697 31.4836 126.804 31.4836C128.999 31.4836 130.763 30.8107 132.045 29.4837C133.327 28.1581 133.976 26.3636 133.976 24.1523C133.976 21.9681 133.367 20.2254 132.164 18.9736C130.961 17.7212 129.269 17.0864 127.135 17.0864ZM114.583 17.0864C113.043 17.0864 111.768 17.4805 110.795 18.2575C109.815 19.0391 109.318 20.0642 109.318 21.3047C109.318 21.9496 109.426 22.5224 109.637 23.0082C109.849 23.4956 110.178 23.9248 110.614 24.2849C111.047 24.6422 111.716 25.0164 112.602 25.3972C113.347 25.7037 113.903 25.963 114.256 26.1674C114.601 26.3677 114.845 26.569 114.984 26.7651C115.118 26.957 115.186 27.2196 115.186 27.5437C115.186 28.4665 114.495 28.9155 113.073 28.9155C112.546 28.9155 111.944 28.8054 111.285 28.5882C110.631 28.3744 110.013 28.0613 109.454 27.6598L109.318 27.5624V30.7114L109.368 30.7346C109.831 30.9482 110.414 31.1284 111.102 31.2701C111.788 31.412 112.412 31.4842 112.954 31.4842C114.626 31.4842 115.972 31.0882 116.954 30.3066C117.943 29.5196 118.444 28.4703 118.444 27.1868C118.444 26.261 118.174 25.467 117.643 24.8267C117.115 24.1916 116.198 23.6085 114.92 23.0931C113.902 22.6844 113.249 22.3451 112.98 22.0847C112.721 21.833 112.589 21.4772 112.589 21.0266C112.589 20.6272 112.752 20.3071 113.085 20.048C113.422 19.7876 113.89 19.6551 114.477 19.6551C115.022 19.6551 115.58 19.7412 116.134 19.9099C116.689 20.0786 117.175 20.3045 117.581 20.5809L117.715 20.6722V17.6851L117.664 17.6631C117.289 17.5023 116.795 17.3648 116.194 17.2532C115.597 17.1423 115.055 17.0864 114.583 17.0864ZM100.792 28.8096C99.6047 28.8096 98.6684 28.4159 98.009 27.6405C97.3452 26.8612 97.0095 25.7504 97.0095 24.3384C97.0095 22.8819 97.3456 21.742 98.0097 20.9489C98.6692 20.1611 99.596 19.7612 100.765 19.7612C101.899 19.7612 102.802 20.1431 103.449 20.8969C104.099 21.6546 104.428 22.7854 104.428 24.2588C104.428 25.7504 104.118 26.8961 103.507 27.6625C102.899 28.4232 101.986 28.8096 100.792 28.8096ZM100.937 17.0864C98.6719 17.0864 96.8728 17.75 95.5909 19.059C94.3091 20.368 93.6587 22.1796 93.6587 24.4438C93.6587 26.5952 94.2935 28.3242 95.5449 29.5844C96.7963 30.845 98.4992 31.4836 100.606 31.4836C102.801 31.4836 104.565 30.8107 105.847 29.4837C107.129 28.1581 107.778 26.3636 107.778 24.1523C107.778 21.9681 107.169 20.2254 105.966 18.9736C104.763 17.7212 103.071 17.0864 100.937 17.0864ZM88.6938 19.796V17.4173H85.4629V31.1525H88.6938V24.1264C88.6938 22.9317 88.9647 21.9501 89.4992 21.2088C90.0269 20.4763 90.7301 20.1051 91.5887 20.1051C91.8798 20.1051 92.2065 20.1531 92.5602 20.248C92.9104 20.3424 93.1641 20.4448 93.3136 20.5527L93.4494 20.6511V17.3938L93.3971 17.3713C93.0962 17.2435 92.6705 17.179 92.132 17.179C91.32 17.179 90.5935 17.4399 89.9711 17.9535C89.4248 18.405 89.03 19.024 88.7281 19.796H88.6938ZM79.6769 17.0864C78.1946 17.0864 76.8725 17.4042 75.7479 18.0308C74.6211 18.6588 73.7496 19.5554 73.1566 20.6954C72.5663 21.8328 72.2666 23.1612 72.2666 24.6428C72.2666 25.9405 72.5572 27.1315 73.1315 28.1811C73.7062 29.2325 74.5196 30.055 75.5492 30.6255C76.5774 31.1952 77.7657 31.4841 79.0815 31.4841C80.6169 31.4841 81.9279 31.1771 82.979 30.5717L83.0214 30.5473V27.5873L82.8856 27.6864C82.4095 28.0333 81.8774 28.3101 81.3049 28.5095C80.7339 28.7088 80.2133 28.8096 79.7567 28.8096C78.489 28.8096 77.4712 28.4129 76.7325 27.6308C75.9921 26.8477 75.6168 25.7481 75.6168 24.3644C75.6168 22.972 76.0082 21.8441 76.7797 21.0118C77.5489 20.1821 78.5685 19.7612 79.8101 19.7612C80.872 19.7612 81.9069 20.1208 82.8859 20.8309L83.0214 20.9294V17.8105L82.9776 17.7858C82.6092 17.5796 82.1067 17.4093 81.4829 17.2802C80.8617 17.1513 80.2541 17.0864 79.6769 17.0864ZM70.0414 17.4174H66.8104V31.1525H70.0414V17.4174ZM68.4589 11.5662C67.9272 11.5662 67.4634 11.7472 67.0823 12.1059C66.6997 12.4657 66.5056 12.9186 66.5056 13.4531C66.5056 13.9792 66.6974 14.4239 67.0764 14.7741C67.4529 15.1232 67.9182 15.3002 68.4591 15.3002C68.9999 15.3002 69.4668 15.1232 69.8479 14.7746C70.2314 14.4239 70.4259 13.9794 70.4259 13.4531C70.4259 12.9373 70.2366 12.489 69.8637 12.1204C69.491 11.7526 69.0183 11.5662 68.4589 11.5662ZM60.3976 16.404V31.1525H63.6949V11.9866H59.1313L53.3306 26.2224L47.7015 11.9866H42.9521V31.1523H46.0506V16.4026H46.157L52.1013 31.1525H54.4397L60.2912 16.404H60.3976ZM18.1648 20.7813H33.3637V5.58215H18.1648V20.7813ZM16.5816 37.569H1.38281V22.37H16.5816V37.569ZM18.1648 37.569H33.3637V22.37H18.1648V37.569Z" fill="#737373"/>
</svg>
