<svg width="150" height="44" viewBox="0 0 150 44" fill="none" xmlns="http://www.w3.org/2000/svg">
<g clip-path="url(#clip0_12122_10097)">
<path fill-rule="evenodd" clip-rule="evenodd" d="M8.79732 14.174C9.12473 13.8194 9.15201 13.2737 9.15201 12.9463V9.31753C9.15201 8.30803 9.15201 7.70779 9.20658 7.29853C9.23386 7.08026 9.343 6.80742 9.39757 6.671C9.42485 6.61644 9.39757 6.61644 9.37028 6.64372L1.40342 14.747C1.37614 14.7743 1.37614 14.8016 1.43071 14.7743C1.56712 14.7197 1.83996 14.6106 2.05823 14.5833C2.46749 14.5287 3.06773 14.5287 4.07723 14.5287H7.56955C7.89696 14.5287 8.44263 14.5014 8.79732 14.174ZM14.9635 35.5645C15.1544 36.0556 15.6455 36.8468 16.5732 37.4471C17.3099 37.9655 18.4285 38.4566 19.9291 38.4566C19.9291 38.4566 26.9137 38.8658 28.0869 30.4625C28.1688 30.4625 29.1783 21.8408 27.514 12.9463C26.8666 9.53495 23.7194 9.0324 22.0338 8.76323C21.8725 8.73747 21.7245 8.71384 21.5934 8.69C20.011 8.41716 16.8733 7.87149 16.8733 7.87149C16.8733 7.87149 16.5186 6.17989 14.8543 5.77064C14.7963 5.75614 14.7426 5.7425 14.6923 5.72971C14.4584 5.67031 14.2973 5.62939 14.1177 5.60694C13.8175 5.57965 13.4901 5.55237 13.2173 5.55237H12.5625C11.2256 5.55237 10.3252 6.39817 10.1888 7.40766V7.57137V13.1645C10.1888 13.9012 10.0797 14.5287 9.61584 14.9653C9.26115 15.2927 8.71547 15.5382 7.76054 15.5382H2.35835H2.19465C1.15787 15.6746 0.339355 16.575 0.339355 17.9119C0.340649 17.9274 0.341942 17.943 0.343241 17.9587C0.369349 18.2732 0.397803 18.616 0.475774 19.0578C0.627859 20.079 0.866448 21.152 1.04 21.9325C1.08439 22.1322 1.12452 22.3127 1.15787 22.4683C1.86725 25.6059 3.23143 26.7246 3.23143 26.7246C5.25043 28.7981 8.1698 29.6712 10.9255 29.5075C11.0073 29.5075 11.2801 29.4802 11.5257 29.4257C11.7713 29.3711 11.9895 29.2892 12.1532 29.2074C13.8448 28.1706 14.6906 24.3509 14.6906 24.3509C14.8816 26.8883 17.7464 27.7886 18.8923 27.9251C18.9196 27.9251 19.3016 27.9796 19.7108 28.0615C19.7435 28.0696 19.7764 28.0778 19.8094 28.086C20.1076 28.1599 20.4147 28.2361 20.6112 28.3343C22.0845 28.9891 23.2031 30.4625 23.2031 32.1268C23.2031 33.9821 21.7025 35.4827 19.8472 35.4827C19.1379 35.4827 18.4831 35.2098 17.992 34.7187C17.7191 34.4459 17.5554 34.0639 17.5554 33.6546C17.5554 33.2727 17.7737 32.918 18.0465 32.6997C18.2567 32.5129 18.6669 32.446 18.8662 32.4135C18.8997 32.408 18.9272 32.4035 18.9469 32.3996C19.0833 32.3723 19.2743 32.3177 19.4107 32.2359C19.7927 32.0176 20.0382 31.6357 20.0382 31.1718C20.0382 30.4897 19.4926 29.9441 18.8105 29.9441C16.5186 29.9441 14.6633 31.7994 14.6633 34.0639C14.6633 34.5823 14.7725 35.1007 14.9635 35.5645ZM20.9113 20.5312C21.1842 19.8491 21.9481 19.4944 22.8485 19.5762C23.7488 19.6854 24.4036 20.2038 24.5128 20.9677C24.5128 21.0018 24.5145 21.0376 24.5162 21.0734C24.5213 21.1809 24.5264 21.2883 24.4855 21.3497C24.4309 21.4315 24.3764 21.4588 24.3218 21.4588C23.9671 21.5134 23.4214 21.4588 22.6302 21.377C21.839 21.2951 21.2933 21.2133 20.9659 21.0496C20.9113 21.0223 20.8567 20.995 20.8295 20.9131C20.8022 20.8313 20.8567 20.6676 20.9113 20.5312ZM37.4174 28.5802L36.4898 28.7712L36.517 29.5351H51.8232L52.2052 23.1234H51.3321C50.6228 24.8423 50.1044 25.9882 49.6133 26.7249C48.7129 28.0618 48.2763 28.3346 46.0936 28.3346C43.4471 28.3346 43.3653 28.0618 43.3653 25.6335V20.3951H44.1019C46.0936 20.3951 46.4483 20.5315 46.7757 21.2136C47.1577 22.0048 47.376 22.5505 47.6215 23.3963H48.4401V16.3571H47.6215C47.376 17.2301 47.1577 17.7485 46.7757 18.4306C46.4483 19.0309 46.0118 19.2491 44.1019 19.2491H43.3653V12.2918C43.7745 12.1826 44.4566 12.0189 45.8481 12.0189C47.7307 12.0189 48.3036 12.1281 49.1767 13.3831C49.586 13.9834 50.0225 14.7746 50.7046 16.2752H51.5504L51.2776 10.8457H36.4898V11.6097L37.4174 11.8007C38.2086 11.9917 38.4542 12.1281 38.4542 13.7651V26.6158C38.4542 28.2528 38.2359 28.3619 37.4174 28.5802ZM52.8873 16.4116C53.5694 16.6299 53.8695 17.0119 54.497 18.5398L58.9443 29.5351H61.2361L65.4106 18.8399C66.0654 17.0664 66.3655 16.6572 67.0749 16.4116L67.5933 16.2479V15.5385H62.6003V16.2479L63.337 16.4389C63.9099 16.5753 64.1828 16.8755 64.1828 17.4757C64.1828 17.8577 64.0737 18.3215 63.8281 18.9763L61.6454 25.197H61.509L59.2444 18.9763C59.0262 18.3761 58.8897 17.9122 58.8897 17.5303C58.8897 16.8755 59.1626 16.6026 59.7355 16.4389L60.4722 16.2479V15.5385H52.3689V16.2479L52.8873 16.4116ZM74.0049 15.1839C70.4308 15.1839 66.9657 17.7758 66.9657 22.4686C66.9657 27.0523 69.2849 29.8352 73.9777 29.8898C76.6787 29.8898 78.725 28.4711 79.68 27.4343V26.5339C78.6705 27.0523 77.3881 27.5434 75.7238 27.5434C72.9409 27.5434 71.2766 26.3429 71.1947 21.923H80.1165C80.0347 17.0392 77.7155 15.1839 74.0049 15.1839ZM75.8057 20.6406L71.1947 20.8862C71.3038 17.503 72.3952 16.1934 73.7594 16.1934C75.3691 16.1934 75.8057 17.3938 75.8057 20.6406ZM91.3301 15.102C89.5294 15.102 87.9742 16.4389 87.2103 17.2574L87.1284 17.2301L87.183 15.3748L86.8829 15.1566L81.2079 15.8114V16.3571L82.1082 16.9573L82.1293 16.9716C82.8747 17.4773 83.0086 17.5682 83.0086 18.7035V27.0796C83.0086 28.2255 82.8995 28.3619 81.9991 28.6075L81.2897 28.7985V29.5351H89.0656V28.7985L88.1652 28.6075C87.3467 28.4711 87.2376 28.3346 87.2376 27.0796V18.3488C87.5923 18.0214 88.1652 17.6667 88.6563 17.6667C88.9019 17.6667 89.2566 17.7485 89.4203 18.0487C89.7204 18.7853 90.4843 19.3037 91.3301 19.3037C92.5033 19.3037 93.431 18.3761 93.431 17.2029C93.431 16.0297 92.476 15.102 91.3301 15.102ZM94.9589 28.6075L94.2495 28.7985H94.3041V29.5351H101.807V28.7985L101.152 28.6348C100.334 28.4165 100.252 28.3619 100.252 27.0796V18.0214L100.262 18.0191C100.863 17.8825 101.812 17.6667 102.762 17.6667C104.017 17.6667 104.617 18.1851 104.617 19.8221V27.0523C104.617 28.3074 104.535 28.3892 103.717 28.6075L103.062 28.7712V29.5078H110.565V28.7712L109.856 28.5802C108.983 28.3619 108.874 28.2255 108.874 27.0523V18.758C108.874 16.3298 107.646 15.1566 105.354 15.1566C103.39 15.1566 101.616 16.0569 100.197 17.0664H100.088L100.143 15.3476L99.8427 15.1566L94.1676 15.8114V16.3571L95.068 16.9573L95.0891 16.9716C95.8345 17.4773 95.9684 17.5682 95.9684 18.7035V27.0796C95.9684 28.2255 95.8592 28.3619 94.9589 28.6075ZM118.368 15.1839C114.74 15.1839 111.084 17.3938 111.084 22.5505C111.084 27.4888 114.467 29.8352 118.368 29.8352C122.079 29.8352 125.68 27.5707 125.68 22.4141C125.68 17.5303 122.27 15.1839 118.368 15.1839ZM118.259 16.2206C120.115 16.2206 121.151 17.2574 121.151 22.6869C121.151 27.8435 120.033 28.7985 118.423 28.7985C116.458 28.7985 115.558 27.598 115.558 22.0867C115.558 17.4484 116.568 16.2206 118.259 16.2206ZM128 17.121V26.1247C128 28.7712 129.309 29.8352 131.737 29.8352C134.002 29.8352 135.339 28.853 135.994 28.2528V27.4888C135.503 27.598 134.711 27.7344 134.057 27.7344C132.72 27.7344 132.31 27.1887 132.31 25.8518V17.121H135.53L135.885 15.5385H132.31V11.9371H130.782C130.019 14.0925 128.409 15.6477 126.308 16.4662V17.121H128ZM143.579 15.1839C140.004 15.1839 136.539 17.7758 136.539 22.4686C136.539 27.0523 138.858 29.8352 143.579 29.8898C146.28 29.8898 148.326 28.4711 149.281 27.4343V26.5339C148.271 27.0523 146.989 27.5434 145.325 27.5434C142.542 27.5434 140.877 26.3429 140.796 21.923H149.69C149.608 17.0392 147.289 15.1839 143.579 15.1839ZM145.379 20.6406L140.768 20.8862C140.877 17.503 141.969 16.1934 143.333 16.1934C144.943 16.1934 145.379 17.3938 145.379 20.6406Z" fill="#737373"/>
</g>
<defs>
<clipPath id="clip0_12122_10097">
<rect width="149.6" height="44" fill="white" transform="translate(0.0751953)"/>
</clipPath>
</defs>
</svg>
