<svg width="74" height="32" viewBox="0 0 74 32" fill="none" xmlns="http://www.w3.org/2000/svg">
<g clip-path="url(#clip0_12109_7041)">
<path fill-rule="evenodd" clip-rule="evenodd" d="M7.58298 12.1595L7.58288 12.0398V11.5517C5.95357 11.5517 4.23234 11.9004 4.23234 13.8213C4.23234 14.7944 4.73634 15.4538 5.60172 15.4538C6.23569 15.4538 6.80309 15.0639 7.16129 14.4299C7.58476 13.6858 7.58394 12.985 7.58298 12.1595ZM9.32314 17.5871C9.49114 17.6758 9.70669 17.6663 9.85568 17.5332L9.86201 17.5395C10.3121 17.1401 11.13 16.4269 11.5896 16.0434C11.7734 15.8912 11.7417 15.6471 11.5959 15.4443C11.5518 15.3831 11.5073 15.3232 11.4631 15.2636C11.0951 14.7677 10.7464 14.2977 10.7464 13.3553V9.84312C10.7464 9.72314 10.7471 9.60394 10.7478 9.48565C10.7555 8.13816 10.7625 6.90761 9.75424 5.96637C8.88887 5.13587 7.45609 4.84424 6.35932 4.84424C4.21649 4.84424 1.82324 5.64305 1.31923 8.29305C1.26851 8.57517 1.47138 8.72415 1.65524 8.76536L3.84244 8.99993C4.04531 8.99042 4.1943 8.79072 4.23234 8.58785C4.41936 7.67493 5.18647 7.23432 6.0455 7.23432C6.5083 7.23432 7.03449 7.40549 7.31028 7.82074C7.59189 8.23605 7.5876 8.7892 7.58376 9.28549V9.28551V9.28553C7.58332 9.34227 7.58288 9.39826 7.58288 9.45322V9.74485C7.37188 9.76892 7.15037 9.79159 6.92209 9.81494C5.73747 9.93615 4.37065 10.076 3.34477 10.5278C1.93418 11.1364 0.942017 12.3822 0.942017 14.2112C0.942017 16.5537 2.41917 17.7234 4.31475 17.7234C5.9187 17.7234 6.79358 17.3462 8.02983 16.0846C8.09506 16.1784 8.1533 16.2646 8.20809 16.3457C8.49947 16.777 8.69346 17.0641 9.32314 17.5871ZM37.1293 12.0398L37.1294 12.1595V12.1596C37.1303 12.985 37.1311 13.6858 36.7077 14.4299C36.3495 15.0639 35.7789 15.4538 35.1481 15.4538C34.2827 15.4538 33.7756 14.7945 33.7756 13.8213C33.7756 11.9004 35.4968 11.5517 37.1293 11.5517V12.0398ZM39.4021 17.5332C39.2531 17.6663 39.0375 17.6759 38.8695 17.5871C38.2329 17.0583 38.0393 16.7707 37.7437 16.3313C37.692 16.2544 37.6371 16.1729 37.5762 16.0846C36.34 17.3462 35.4619 17.7234 33.8611 17.7234C31.9624 17.7234 30.4884 16.5537 30.4884 14.2112C30.4884 12.3822 31.4774 11.1364 32.8912 10.5278C33.917 10.076 35.2839 9.93615 36.4685 9.81494C36.6968 9.79159 36.9183 9.76892 37.1293 9.74485V9.45323C37.1293 9.39868 37.1297 9.34312 37.1301 9.28683C37.134 8.7902 37.1382 8.23642 36.8535 7.82075C36.5809 7.40549 36.0547 7.23432 35.5887 7.23432C34.7297 7.23432 33.9658 7.67493 33.7787 8.58785C33.7407 8.79072 33.5917 8.99043 33.3857 8.99994L31.2016 8.76536C31.0178 8.72416 30.8117 8.57517 30.8656 8.29306C31.3665 5.64305 33.7629 4.84424 35.9057 4.84424C37.0025 4.84424 38.4353 5.13587 39.3006 5.96637C40.3089 6.90761 40.3019 8.13817 40.2942 9.48566L40.2942 9.48693C40.2935 9.6048 40.2928 9.72357 40.2928 9.84312V13.3553C40.2928 14.2977 40.6415 14.7677 41.0095 15.2636C41.0537 15.3232 41.0982 15.3831 41.1423 15.4443C41.285 15.6471 41.3167 15.8912 41.1328 16.0434C40.6732 16.4269 39.8554 17.1402 39.4052 17.5396L39.4021 17.5332ZM13.7578 17.5649H16.0116C16.2525 17.5649 16.4459 17.3779 16.4459 17.1465V11.016L16.4457 10.8701C16.4435 9.54782 16.4406 7.82711 18.0023 7.82711C19.4397 7.82711 19.4151 9.35806 19.3952 10.6046C19.3929 10.7463 19.3907 10.8843 19.3907 11.016L19.3938 17.1465C19.3938 17.3684 19.5714 17.5491 19.7996 17.5649H22.0502C22.2911 17.5649 22.4845 17.3779 22.4845 17.1465V11.016C22.4845 10.9648 22.4843 10.9116 22.4842 10.8569C22.4825 10.2099 22.4803 9.338 22.6937 8.80025C22.9251 8.217 23.4956 7.85246 24.0409 7.85246C24.6939 7.85246 25.1979 8.07119 25.3659 8.8478C25.4526 9.22032 25.4408 10.0816 25.4329 10.6581L25.4329 10.6585C25.431 10.798 25.4293 10.9209 25.4293 11.016V17.1465C25.4293 17.3684 25.6099 17.5491 25.835 17.5649H28.0856C28.3265 17.5649 28.5199 17.3779 28.5199 17.1465L28.5231 9.84631C28.5231 9.6683 28.5261 9.4867 28.5291 9.30333L28.5291 9.30305C28.5472 8.20969 28.5664 7.0533 27.9556 6.21998C27.3248 5.3451 26.2915 4.95521 25.3468 4.95521C24.0187 4.95521 22.7793 5.63673 22.234 7.09804C21.6001 5.63673 20.7188 4.95521 19.3083 4.95521C17.9198 4.95521 16.8896 5.63673 16.3413 7.09804H16.3V5.58601C16.2842 5.3768 16.1099 5.20879 15.8911 5.19929H13.7895C13.5486 5.19929 13.3552 5.38314 13.3552 5.61454V17.1814C13.3711 17.3874 13.5423 17.5491 13.7578 17.5649ZM43.0347 5.58599V7.24066C43.0347 7.48791 43.2249 7.65591 43.4627 7.65591H47.3331L42.8857 14.0337C42.6163 14.4426 42.6131 14.9022 42.6131 15.1717V16.8485C42.6131 17.0894 42.8826 17.3684 43.1393 17.2289C45.6594 15.8912 48.6866 16.0212 50.9657 17.2162C51.2447 17.362 51.5109 17.0799 51.5109 16.839V15.0734C51.4888 14.8357 51.4095 14.5947 51.1179 14.4299C49.8246 13.7008 48.3189 13.4885 46.8924 13.5233L50.7312 8.04263C51.0862 7.5513 51.2859 7.24066 51.2891 7.00292V5.58599C51.2891 5.33874 51.0989 5.16757 50.8611 5.16757H43.4531C43.2249 5.16757 43.0347 5.33557 43.0347 5.58599ZM57.6667 4.95521C61.0109 4.95521 62.8209 7.8271 62.8209 11.4788C62.8209 15.0068 60.8208 17.8058 57.6667 17.8058C54.3828 17.8058 52.595 14.9339 52.595 11.3552C52.595 7.7542 54.4049 4.95521 57.6667 4.95521ZM57.6858 7.31676C56.0247 7.31676 55.9201 9.58004 55.9201 10.9906L55.9201 11.0425C55.9199 12.4768 55.9193 15.4221 57.6667 15.4221C59.4133 15.4221 59.4958 12.9876 59.4958 11.5041C59.4958 10.5278 59.4545 9.36132 59.1597 8.43572C58.9062 7.63057 58.4021 7.31676 57.6858 7.31676ZM64.9131 17.5649H67.1574C67.3983 17.5649 67.5948 17.3779 67.598 17.1465V10.9177C67.598 10.1379 67.6392 9.43423 67.9562 8.72735C68.2066 8.16945 68.7106 7.80175 69.259 7.80175C70.6955 7.80175 70.682 9.37867 70.6714 10.616C70.6705 10.7193 70.6696 10.8203 70.6696 10.9177V17.2004C70.6918 17.3969 70.863 17.5491 71.069 17.5649H73.3291C73.551 17.5649 73.738 17.4033 73.7634 17.2004V9.91921C73.7634 8.80025 73.7634 7.24385 73.1738 6.31825C72.5398 5.31974 71.554 4.95521 70.5428 4.95521C68.9864 4.95521 68.102 5.70964 67.4712 7.2914H67.43V5.52261C67.3856 5.34193 67.224 5.20879 67.0274 5.19929H64.9385C64.7103 5.19929 64.5233 5.36412 64.5042 5.5765L64.5074 17.1465C64.5074 17.3684 64.6881 17.5491 64.9131 17.5649ZM42.9628 19.8254C44.3368 19.6624 47.3423 19.3058 47.8781 19.993C48.4198 20.6868 47.2771 23.5399 46.7663 24.8153L46.7654 24.8175C46.6101 25.2042 46.943 25.3595 47.2916 25.0679C49.5644 23.1692 50.1477 19.191 49.6849 18.6172C49.2221 18.0467 45.2534 17.5553 42.8348 19.2575C42.4608 19.5175 42.5242 19.8788 42.9394 19.8281L42.9628 19.8254ZM30.4723 26.7891C35.7533 26.7891 41.887 25.1249 46.1187 22.0058C46.8193 21.4859 46.2202 20.7125 45.5038 21.0168C40.7617 23.0297 35.6043 23.9996 30.9161 23.9996C23.9645 23.9996 17.2349 22.0946 11.7923 18.9279C11.3168 18.6489 10.9617 19.1371 11.358 19.4953C16.4012 24.0504 23.0675 26.7891 30.4723 26.7891Z" fill="#A3A3A3"/>
</g>
<defs>
<clipPath id="clip0_12109_7041">
<rect width="73.6" height="32" fill="white" transform="translate(0.400024)"/>
</clipPath>
</defs>
</svg>
