<svg width="109" height="32" viewBox="0 0 109 32" fill="none" xmlns="http://www.w3.org/2000/svg">
<g clip-path="url(#clip0_12109_7043)">
<path fill-rule="evenodd" clip-rule="evenodd" d="M5.99799 10.3084C6.2361 10.0504 6.25594 9.65358 6.25594 9.41547V6.77638C6.25594 6.0422 6.25595 5.60566 6.29563 5.30802C6.31547 5.14928 6.39484 4.95085 6.43453 4.85164C6.45437 4.81195 6.43453 4.81195 6.41469 4.8318L0.620607 10.7251C0.600765 10.7449 0.600765 10.7648 0.64045 10.7449C0.739664 10.7052 0.938091 10.6259 1.09683 10.606C1.39447 10.5663 1.83101 10.5663 2.5652 10.5663H5.10507C5.34318 10.5663 5.74003 10.5465 5.99799 10.3084ZM10.4824 25.8651C10.6213 26.2223 10.9785 26.7977 11.6532 27.2343C12.1889 27.6113 13.0025 27.9684 14.0938 27.9684C14.0938 27.9684 19.1736 28.2661 20.0268 22.1545C20.0863 22.1545 20.8205 15.8842 19.6101 9.41547C19.1393 6.93451 16.8504 6.56902 15.6245 6.37326C15.5072 6.35452 15.3996 6.33734 15.3042 6.32C14.1534 6.12157 11.8714 5.72472 11.8714 5.72472C11.8714 5.72472 11.6135 4.49447 10.4031 4.19683C10.3609 4.18628 10.3218 4.17636 10.2852 4.16706C10.1151 4.12386 9.99795 4.0941 9.86732 4.07777C9.64905 4.05793 9.41094 4.03809 9.21251 4.03809H8.73629C7.76399 4.03809 7.10918 4.65321 7.00997 5.38739V5.50645V9.57421C7.00997 10.11 6.9306 10.5663 6.59327 10.8838C6.33532 11.1219 5.93846 11.3005 5.24397 11.3005H1.3151H1.19605C0.442023 11.3997 -0.153259 12.0546 -0.153259 13.0268C-0.152319 13.0381 -0.151378 13.0495 -0.150433 13.0609C-0.131446 13.2896 -0.110752 13.5389 -0.0540456 13.8602C0.0565613 14.6029 0.230081 15.3833 0.356297 15.9509C0.388582 16.0961 0.417772 16.2274 0.442023 16.3406C0.957934 18.6225 1.95007 19.4361 1.95007 19.4361C3.41843 20.9441 5.54161 21.5791 7.54572 21.46C7.60525 21.46 7.80368 21.4402 7.98226 21.4005C8.16085 21.3608 8.31959 21.3013 8.43865 21.2417C9.6689 20.4877 10.284 17.7097 10.284 17.7097C10.4229 19.5551 12.5064 20.2099 13.3398 20.3091C13.3596 20.3091 13.6374 20.3488 13.9351 20.4083C13.9588 20.4143 13.9827 20.4202 14.0068 20.4262C14.2236 20.4799 14.447 20.5353 14.5899 20.6068C15.6614 21.083 16.475 22.1545 16.475 23.3649C16.475 24.7142 15.3836 25.8056 14.0343 25.8056C13.5184 25.8056 13.0422 25.6071 12.685 25.25C12.4866 25.0515 12.3675 24.7738 12.3675 24.4761C12.3675 24.1983 12.5262 23.9404 12.7247 23.7816C12.8776 23.6457 13.1759 23.5971 13.3208 23.5734C13.3452 23.5695 13.3652 23.5662 13.3795 23.5633C13.4787 23.5435 13.6176 23.5038 13.7168 23.4443C13.9946 23.2855 14.1732 23.0077 14.1732 22.6704C14.1732 22.1744 13.7763 21.7775 13.2803 21.7775C11.6135 21.7775 10.2642 23.1268 10.2642 24.7738C10.2642 25.1508 10.3435 25.5278 10.4824 25.8651ZM14.8082 14.9318C15.0066 14.4357 15.5622 14.1777 16.217 14.2373C16.8718 14.3166 17.348 14.6936 17.4274 15.2492C17.4274 15.274 17.4286 15.3001 17.4299 15.3261C17.4336 15.4043 17.4373 15.4824 17.4076 15.527C17.3679 15.5866 17.3282 15.6064 17.2885 15.6064C17.0306 15.6461 16.6337 15.6064 16.0583 15.5469C15.4828 15.4873 15.086 15.4278 14.8478 15.3088C14.8082 15.2889 14.7685 15.2691 14.7486 15.2096C14.7288 15.15 14.7685 15.031 14.8082 14.9318ZM26.8126 20.7856L26.1379 20.9245L26.1578 21.4801H37.2896L37.5674 16.817H36.9324C36.4165 18.0671 36.0395 18.9005 35.6823 19.4363C35.0275 20.4086 34.71 20.607 33.1226 20.607C31.1978 20.607 31.1383 20.4086 31.1383 18.6426V14.8328H31.6741C33.1226 14.8328 33.3805 14.932 33.6187 15.4281C33.8965 16.0035 34.0552 16.4003 34.2338 17.0155H34.8291V11.896H34.2338C34.0552 12.531 33.8965 12.908 33.6187 13.4041C33.3805 13.8406 33.0631 13.9994 31.6741 13.9994H31.1383V8.93948C31.436 8.86011 31.932 8.74105 32.944 8.74105C34.3132 8.74105 34.7299 8.82042 35.3648 9.73319C35.6625 10.1697 35.9799 10.7452 36.476 11.8365H37.0911L36.8927 7.88781H26.1379V8.44341L26.8126 8.58231C27.388 8.72121 27.5666 8.82042 27.5666 10.011V19.3569C27.5666 20.5475 27.4079 20.6269 26.8126 20.7856ZM38.0634 11.9357C38.5595 12.0945 38.7778 12.3723 39.2342 13.4835L42.4685 21.4801H44.1353L47.1712 13.7017C47.6475 12.412 47.8657 12.1143 48.3817 11.9357L48.7587 11.8167V11.3008H45.1274V11.8167L45.6632 11.9556C46.0799 12.0548 46.2783 12.2731 46.2783 12.7096C46.2783 12.9874 46.199 13.3247 46.0204 13.801L44.4329 18.3251H44.3337L42.6868 13.801C42.528 13.3644 42.4288 13.0271 42.4288 12.7493C42.4288 12.2731 42.6273 12.0746 43.044 11.9556L43.5797 11.8167V11.3008H37.6864V11.8167L38.0634 11.9357ZM53.4217 11.0428C50.8223 11.0428 48.3023 12.9279 48.3023 16.3408C48.3023 19.6744 49.9889 21.6984 53.4019 21.738C55.3663 21.738 56.8545 20.7062 57.549 19.9522V19.2974C56.8148 19.6744 55.8822 20.0316 54.6718 20.0316C52.6478 20.0316 51.4374 19.1585 51.3779 15.944H57.8665C57.807 12.3921 56.1203 11.0428 53.4217 11.0428ZM54.7313 15.0114L51.3779 15.1899C51.4573 12.7294 52.251 11.777 53.2431 11.777C54.4138 11.777 54.7313 12.6501 54.7313 15.0114ZM66.0219 10.9833C64.7122 10.9833 63.5812 11.9556 63.0256 12.5509L62.9661 12.531L63.0058 11.1817L62.7875 11.023L58.6602 11.4992V11.896L59.315 12.3326L59.3303 12.343C59.8724 12.7108 59.9698 12.7768 59.9698 13.6025V19.6942C59.9698 20.5276 59.8904 20.6269 59.2356 20.8054L58.7197 20.9443V21.4801H64.3749V20.9443L63.7201 20.8054C63.1248 20.7062 63.0454 20.607 63.0454 19.6942V13.3446C63.3034 13.1065 63.7201 12.8485 64.0773 12.8485C64.2558 12.8485 64.5138 12.908 64.6329 13.1263C64.8511 13.6621 65.4067 14.0391 66.0219 14.0391C66.8751 14.0391 67.5497 13.3644 67.5497 12.5112C67.5497 11.6579 66.8552 10.9833 66.0219 10.9833ZM68.6609 20.8054L68.145 20.9443H68.1847V21.4801H73.6415V20.9443L73.1652 20.8253C72.57 20.6665 72.5104 20.6269 72.5104 19.6942V13.1065L72.5178 13.1048C72.9548 13.0055 73.6454 12.8485 74.336 12.8485C75.2487 12.8485 75.6853 13.2255 75.6853 14.4161V19.6744C75.6853 20.5872 75.6257 20.6467 75.0305 20.8054L74.5542 20.9245V21.4602H80.011V20.9245L79.4951 20.7856C78.8601 20.6269 78.7807 20.5276 78.7807 19.6744V13.6422C78.7807 11.8762 77.8878 11.023 76.221 11.023C74.7924 11.023 73.5026 11.6778 72.4707 12.412H72.3914L72.4311 11.1619L72.2128 11.023L68.0855 11.4992V11.896L68.7403 12.3326L68.7556 12.343C69.2977 12.7108 69.3951 12.7768 69.3951 13.6025V19.6942C69.3951 20.5276 69.3158 20.6269 68.6609 20.8054ZM85.686 11.0428C83.0469 11.0428 80.388 12.6501 80.388 16.4003C80.388 19.9919 82.8485 21.6984 85.686 21.6984C88.3846 21.6984 91.0039 20.0514 91.0039 16.3011C91.0039 12.7493 88.5235 11.0428 85.686 11.0428ZM85.6066 11.7968C86.9559 11.7968 87.71 12.5509 87.71 16.4996C87.71 20.2498 86.8964 20.9443 85.7257 20.9443C84.297 20.9443 83.6422 20.0713 83.6422 16.063C83.6422 12.6898 84.3764 11.7968 85.6066 11.7968ZM92.6905 12.4516V18.9997C92.6905 20.9245 93.6429 21.6984 95.409 21.6984C97.0559 21.6984 98.0282 20.984 98.5044 20.5475V19.9919C98.1473 20.0713 97.5718 20.1705 97.0956 20.1705C96.1233 20.1705 95.8256 19.7736 95.8256 18.8013V12.4516H98.1671L98.425 11.3008H95.8256V8.68152H94.7145C94.1589 10.2491 92.9881 11.3801 91.4602 11.9754V12.4516H92.6905ZM104.021 11.0428C101.421 11.0428 98.9013 12.9279 98.9013 16.3408C98.9013 19.6744 100.588 21.6984 104.021 21.738C105.985 21.738 107.473 20.7062 108.168 19.9522V19.2974C107.434 19.6744 106.501 20.0316 105.291 20.0316C103.267 20.0316 102.056 19.1585 101.997 15.944H108.465C108.406 12.3921 106.719 11.0428 104.021 11.0428ZM105.33 15.0114L101.977 15.1899C102.056 12.7294 102.85 11.777 103.842 11.777C105.013 11.777 105.33 12.6501 105.33 15.0114Z" fill="#A3A3A3"/>
</g>
<defs>
<clipPath id="clip0_12109_7043">
<rect width="108.8" height="32" fill="white" transform="translate(0.200012)"/>
</clipPath>
</defs>
</svg>
