<svg width="86" height="32" viewBox="0 0 86 32" fill="none" xmlns="http://www.w3.org/2000/svg">
<g clip-path="url(#clip0_12109_7037)">
<path fill-rule="evenodd" clip-rule="evenodd" d="M18.8104 7.78167C18.8325 7.78167 18.8557 7.78629 18.8782 7.79523C18.9426 7.82031 19.0042 7.87974 19.029 7.96673C19.0458 8.08441 21.5843 25.2822 21.5843 25.2822L15.3474 26.8288V26.8287L15.3473 26.8287L0.957031 24.3406C0.957031 24.3406 2.67177 11.0766 2.70539 10.6059C2.78944 9.98392 2.80625 9.96711 3.46189 9.76538C3.48917 9.76538 4.09188 9.57726 5.00966 9.29079L5.0098 9.29075L5.69777 9.07612C5.84907 8.08427 6.33659 6.80662 6.97541 5.78114C7.90002 4.33539 9.02637 3.51164 10.1527 3.47802C10.7411 3.46121 11.2286 3.66294 11.6153 4.06641C11.637 4.07727 11.6517 4.09513 11.6684 4.11548C11.6776 4.12664 11.6874 4.13856 11.6993 4.15047C11.7666 4.13366 11.817 4.13366 11.8843 4.13366C12.7584 4.13366 13.4981 4.63799 13.9856 5.57941C14.1369 5.88201 14.2546 6.1678 14.3219 6.40316C14.759 6.26867 15.0279 6.18461 15.0279 6.18461C15.0973 6.16148 15.2463 6.13834 15.3763 6.16997C15.4295 6.17738 15.4812 6.20453 15.5229 6.24295C15.5261 6.24584 15.5292 6.2488 15.5323 6.25186C15.6668 6.40316 17.0621 7.74805 17.0621 7.74805C17.0621 7.74805 18.7264 7.78167 18.8104 7.78167ZM12.4895 6.99155C12.8929 6.85706 13.2628 6.73938 13.599 6.63851C13.4309 6.05012 13.0106 5.07508 12.1532 4.94059C12.4054 5.61303 12.4895 6.41997 12.4895 6.99155ZM9.32897 7.94978C10.1527 7.69761 10.9765 7.44545 11.733 7.21009C11.7498 6.58808 11.6825 5.66347 11.3463 5.00783C11.0269 5.14232 10.7411 5.37768 10.5394 5.59622C10.0014 6.18461 9.56432 7.05879 9.32897 7.94978ZM10.8588 4.41944C10.6739 4.28496 10.4553 4.23452 10.1863 4.23452C8.45479 4.28496 6.92498 7.00836 6.52151 8.84077C6.66483 8.79698 6.81191 8.75224 6.9621 8.70657L6.96311 8.70626C7.44685 8.55914 7.96274 8.40224 8.48841 8.23557C8.70696 7.0756 9.26172 5.88201 9.9846 5.1087C10.2536 4.8061 10.5562 4.57074 10.8588 4.41944ZM11.1616 13.6991L11.8845 10.9925C11.8845 10.9925 11.2625 10.6731 10.0353 10.7571C6.87478 10.9588 5.44583 13.1611 5.58032 15.3465C5.67482 16.8113 6.53427 17.4208 7.28672 17.9544C7.87284 18.3701 8.39404 18.7397 8.43821 19.4316C8.47183 19.8015 8.21967 20.3563 7.56403 20.3899C6.55537 20.4571 5.27772 19.4989 5.27772 19.4989L4.7902 21.5667C4.7902 21.5667 6.05103 22.9115 8.33734 22.7939C10.2538 22.6762 11.5651 21.1464 11.4306 18.9105C11.3186 17.1905 10.1099 16.4132 9.15477 15.799C8.53225 15.3987 8.01748 15.0677 7.98431 14.59C7.98431 14.3715 7.98431 13.4805 9.39644 13.3965C10.3547 13.3292 11.1616 13.6991 11.1616 13.6991ZM75.178 12.7244H73.1943L73.2952 12.2537C73.4633 11.2787 74.0348 10.4213 74.9931 10.4213C75.4974 10.4213 75.9009 10.5726 75.9009 10.5726L76.4557 8.33673C76.4557 8.33673 75.9681 8.08456 74.909 8.08456C73.9004 8.08456 72.8917 8.37035 72.1184 9.02599C71.1433 9.84973 70.6894 11.0433 70.4709 12.2537L70.3868 12.7244H69.0587L68.6385 14.8763H69.9665L68.4535 22.8447H71.2946L72.8076 14.8763H74.7745L75.178 12.7244ZM37.202 14.0189C37.9585 13.1111 38.9504 12.5059 40.2112 12.5059C41.7074 12.5059 42.548 13.4809 42.5312 15.0948C42.5312 15.5991 42.4471 16.3388 42.3294 16.9608L41.2199 22.8447H38.3788L39.4547 17.1457C39.5388 16.7591 39.5724 16.2716 39.5724 15.8849C39.5724 15.2629 39.3202 14.8258 38.6814 14.8258C37.7736 14.8258 36.7986 15.9858 36.4287 17.8686L35.4873 22.8447H32.6462L35.42 8.28628H38.2611L37.1684 14.0021L37.202 14.0189ZM28.9309 15.5822C28.9309 16.0361 29.3007 16.3723 30.0236 16.7589C31.1332 17.3978 32.0578 18.2719 32.0746 19.4992C32.0746 21.7687 30.2254 23.0295 27.6701 23.0295C25.9049 23.0295 24.8626 22.3234 24.8626 22.3234L25.5687 20.3061C25.5687 20.3061 26.7118 20.9281 27.9054 20.9281C28.7124 20.9281 29.1494 20.491 29.1494 19.9531C29.1494 19.4319 28.8468 19.0789 27.9727 18.5914C26.8968 17.9693 26.0898 17.112 26.0898 15.9688C26.0898 13.9683 27.8214 12.5394 30.3094 12.5394C32.0914 12.5394 32.6966 13.0101 32.6966 13.0101L32.041 15.0274C32.041 15.0274 31.2004 14.6407 30.259 14.6407C29.4521 14.6407 28.9309 15.0106 28.9309 15.5822ZM48.9864 12.5056C45.5569 12.5056 43.2874 15.5989 43.2874 19.0451C43.2874 21.2474 44.6491 23.0294 47.2044 23.0294C50.5666 23.0294 52.8361 20.0202 52.8361 16.4899C52.8529 14.4557 51.6593 12.5056 48.9864 12.5056ZM47.591 20.8608C46.616 20.8608 46.2125 20.037 46.2125 18.9947C46.2125 17.364 47.0531 14.7079 48.5997 14.7079C49.6084 14.7079 49.9446 15.5821 49.9446 16.4226C49.9446 18.171 49.0872 20.8608 47.591 20.8608ZM57.1233 14.2035C57.1233 14.2035 58.2161 12.5056 60.1325 12.5056C62.2171 12.5056 63.0745 14.2204 63.0745 16.1368C63.0745 19.5999 60.889 23.0294 57.5436 23.0294C56.4677 23.0294 55.8793 22.6595 55.8793 22.6595H55.8121L55.0219 26.8791H52.1809L54.1646 16.4562C54.3831 15.2795 54.6185 13.6992 54.7362 12.6737H57.2578L57.0897 14.2035H57.1233ZM56.2323 20.4741C56.2323 20.4741 56.6694 20.8944 57.4091 20.8944C59.0062 20.8944 60.0989 18.2718 60.0989 16.4226C60.0989 15.6661 59.8299 14.8592 58.9558 14.8592C57.9639 14.8592 57.0393 16.036 56.7031 17.8179L56.2323 20.4741ZM67.1423 8.42071C66.2345 8.42071 65.5116 9.14359 65.5116 10.0682C65.5116 10.9088 66.0496 11.4971 66.8565 11.4971H66.8901C67.7811 11.4971 68.5376 10.8919 68.5544 9.84966C68.5544 9.02591 67.9996 8.42071 67.1423 8.42071ZM65.9993 22.8277H63.1582L65.0747 12.7411H67.9326L65.9993 22.8277ZM79.4647 19.6841C80.2548 17.2296 82.0368 12.7411 82.0368 12.7411H85.0124L81.5324 20.222C80.3052 22.7773 79.0948 24.6602 77.8004 25.8706C76.7917 26.812 75.5813 27.2995 75.0097 27.4172L74.2196 24.9964C74.6903 24.8283 75.2955 24.5761 75.8335 24.1894C76.4891 23.7355 77.0439 23.1135 77.3801 22.4747C77.4642 22.3402 77.481 22.2057 77.4473 22.004L75.7326 12.7411H78.725C78.725 12.7411 79.3806 18.8939 79.4311 19.6841H79.4647Z" fill="#A3A3A3"/>
</g>
<defs>
<clipPath id="clip0_12109_7037">
<rect width="85.6" height="32" fill="white" transform="translate(0.400024)"/>
</clipPath>
</defs>
</svg>
