<svg width="88" height="32" viewBox="0 0 88 32" fill="none" xmlns="http://www.w3.org/2000/svg">
<path d="M18.6511 4.71875H4.05632C2.03307 4.71875 0.393311 6.35851 0.393311 8.38176V22.9765C0.393311 24.9997 2.03307 26.6395 4.05632 26.6395H18.6511C20.6743 26.6395 22.3141 24.9997 22.3141 22.9765V8.38176C22.3141 6.35851 20.6743 4.71875 18.6511 4.71875ZM18.3293 21.4976C18.3293 22.1368 17.8113 22.6547 17.1722 22.6547H5.53519C4.89604 22.6547 4.3781 22.1368 4.3781 21.4976V9.86063C4.3781 9.22148 4.89604 8.70354 5.53519 8.70354H17.1722C17.8113 8.70354 18.3293 9.22148 18.3293 9.86063V21.4976ZM9.02849 18.6545C8.66043 18.6545 8.3651 18.357 8.3651 17.9889V13.3429C8.3651 12.9748 8.66043 12.6751 9.02849 12.6751H13.6811C14.0469 12.6751 14.3445 12.9726 14.3445 13.3429V17.9867C14.3445 18.3548 14.0469 18.6523 13.6811 18.6523H9.02849V18.6545ZM28.126 18.3371H30.5195C30.6385 19.6926 31.5575 20.7505 33.4111 20.7505C35.0663 20.7505 36.0845 19.9328 36.0845 18.6964C36.0845 17.5393 35.2867 17.0213 33.8497 16.6819L31.9939 16.283C29.9795 15.8444 28.4632 14.5485 28.4632 12.4327C28.4632 10.0987 30.5371 8.50298 33.2304 8.50298C36.0823 8.50298 37.9182 9.99948 38.0769 12.2123H35.7627C35.4872 11.1764 34.6277 10.5593 33.2326 10.5593C31.7559 10.5593 30.7399 11.3571 30.7399 12.3754C30.7399 13.3936 31.6171 14.0107 33.1334 14.3501L34.9693 14.749C36.9837 15.1876 38.359 16.4042 38.359 18.5377C38.359 21.2508 36.3247 22.8663 33.4133 22.8663C30.1404 22.8641 28.3265 21.0899 28.126 18.3371ZM46.9215 26.6395V22.6701L47.078 20.929H46.9215C46.3727 22.1809 45.22 22.8663 43.6552 22.8663C41.1316 22.8663 39.2538 20.8122 39.2538 17.6627C39.2538 14.5132 41.1316 12.4591 43.6552 12.4591C45.2002 12.4591 46.2955 13.182 46.9215 14.3171H47.078V12.6531H49.1519V26.6395H46.9215ZM46.9986 17.6605C46.9986 15.6461 45.7666 14.4713 44.2591 14.4713C42.7515 14.4713 41.5195 15.6461 41.5195 17.6605C41.5195 19.6749 42.7515 20.8497 44.2591 20.8497C45.7666 20.8497 46.9986 19.6771 46.9986 17.6605ZM50.8071 18.6986V12.6531H53.0375V18.5024C53.0375 20.0871 53.8001 20.8497 55.0718 20.8497C56.6366 20.8497 57.6548 19.7344 57.6548 17.9933V12.6531H59.8853V22.6679H57.8113V20.594H57.6548C57.1656 21.9252 56.09 22.8641 54.4282 22.8641C52.0391 22.8641 50.8071 21.3389 50.8071 18.6986ZM61.2429 19.8711C61.2429 17.9933 62.5543 16.8979 64.8817 16.7613L67.6389 16.585V15.8025C67.6389 14.8637 66.9534 14.2972 65.7412 14.2972C64.626 14.2972 63.9604 14.8637 63.7841 15.6659H61.5537C61.7895 13.6316 63.4711 12.4569 65.739 12.4569C68.3023 12.4569 69.8671 13.5523 69.8671 15.6659V22.6679H67.7931V20.81H67.6367C67.1672 22.042 66.1886 22.8641 64.3109 22.8641C62.5146 22.8641 61.2429 21.6519 61.2429 19.8711ZM67.6411 18.6391V18.1101L65.3908 18.2666C64.1786 18.3437 63.6298 18.7956 63.6298 19.6948C63.6298 20.4573 64.2558 21.0061 65.1351 21.0061C66.722 21.0061 67.6411 19.9901 67.6411 18.6391ZM71.5311 22.6701V12.6531H73.605V14.5705H73.7615C74.0546 13.2592 75.053 12.6531 76.5385 12.6531H77.5568V14.6675H76.2851C74.837 14.6675 73.7615 15.6064 73.7615 17.3872V22.6679H71.5311V22.6701ZM87.7612 18.0726H80.1508C80.2676 19.9108 81.5592 20.9488 82.9874 20.9488C84.1995 20.9488 84.9621 20.4596 85.3941 19.6375H87.6047C86.9986 21.6717 85.2178 22.8641 82.9675 22.8641C80.0142 22.8641 77.9402 20.6535 77.9402 17.6605C77.9402 14.6675 80.0715 12.4569 82.9874 12.4569C85.9208 12.4569 87.8383 14.4713 87.8383 16.9751C87.8405 17.4666 87.8008 17.72 87.7612 18.0726ZM85.6299 16.5277C85.5528 15.1392 84.3979 14.2003 82.9896 14.2003C81.6584 14.2003 80.5453 15.0422 80.2698 16.5277H85.6299Z" fill="#7A7493"/>
</svg>
