<svg version="1.2" xmlns="http://www.w3.org/2000/svg" viewBox="0 0 95 26" width="95" height="26">
	<title>Logo</title>
	<style>
		.s0 { fill: #0a0a0a } 
	</style>
	<path class="s0" d="m20 9.8h-6.8v-6.8h-6.5c0 3.7-3 6.8-6.7 6.8v6.4h6.7v6.8h6.5c0-3.7 3.1-6.8 6.8-6.8z"/>
	<path class="s0" d="m39.1 20.5h-10.5v-2.4l7.2-9.9h-7v-2.3h10.2v2.3l-7.3 9.9h7.4zm2.7-11.8c-0.8 0-1.5-0.7-1.5-1.5 0-0.8 0.7-1.5 1.5-1.5 0.8 0 1.5 0.7 1.5 1.5 0 0.8-0.7 1.5-1.5 1.5zm-1.2 11.8v-9.8h2.5v9.8zm4.5 4.6v-14.4h2.3l0.1 1.5c0.6-1.2 1.9-1.8 3.4-1.8 2.8 0 4.7 2 4.7 5.1 0 3.1-1.7 5.3-4.7 5.3-1.4 0-2.7-0.6-3.3-1.6v5.9zm2.4-9.5c0 1.8 1.1 3 2.8 3 1.7 0 2.7-1.2 2.7-3 0-1.8-1-3-2.7-3-1.7 0-2.8 1.2-2.8 3zm9.5 9.5v-14.4h2.3l0.2 1.5c0.6-1.2 1.9-1.8 3.4-1.8 2.7 0 4.6 2 4.6 5.1 0 3.1-1.7 5.3-4.6 5.3-1.5 0-2.8-0.6-3.4-1.6v5.9zm2.4-9.5c0 1.8 1.1 3 2.8 3 1.7 0 2.8-1.2 2.8-3 0-1.8-1.1-3-2.8-3-1.7 0-2.8 1.2-2.8 3zm12.5 5.2c-2.1 0-3.4-1.2-3.4-3.1 0-1.8 1.3-2.9 3.7-3.1l2.9-0.2v-0.3c0-1.3-0.8-1.8-2-1.8-1.4 0-2.2 0.6-2.2 1.6h-2.1c0-2.1 1.7-3.5 4.4-3.5 2.7 0 4.3 1.4 4.3 4.1v6h-2.1l-0.2-1.4c-0.4 1-1.8 1.7-3.3 1.7zm0.8-1.8c1.5 0 2.5-0.9 2.5-2.5v-0.5l-2.1 0.2c-1.5 0.1-2.1 0.6-2.1 1.4 0 0.9 0.6 1.4 1.7 1.4zm5.7 6.1v-2h1.4c1 0 1.6-0.2 2-1.4l0.3-0.7-4-10.3h2.6l2.5 7.2 2.7-7.2h2.5l-4.8 12c-0.7 1.9-1.8 2.6-3.4 2.6q-1 0-1.8-0.2z"/>
</svg>