<svg width="118" height="44" viewBox="0 0 118 44" fill="none" xmlns="http://www.w3.org/2000/svg">
<g clip-path="url(#clip0_12122_10265)">
<path d="M40.8146 31.8853V18.5766H41.0517L50.7392 31.8853H53.7877V12.3412H50.4005V25.6165H50.1633L40.4759 12.3412H37.4273V31.8853H40.8146ZM63.3736 32.1871C67.8447 32.1871 70.5884 29.304 70.5884 24.4767C70.5884 19.6828 67.8447 16.7663 63.3736 16.7663C58.9363 16.7663 56.1588 19.6828 56.1588 24.4767C56.1926 29.304 58.9024 32.1871 63.3736 32.1871ZM63.3736 29.3711C61.0025 29.3711 59.6476 27.5944 59.6476 24.4767C59.6476 21.3925 61.0025 19.5823 63.3736 19.5823C65.7446 19.5823 67.0995 21.3925 67.0995 24.4767C67.0995 27.5944 65.7446 29.3711 63.3736 29.3711ZM73.6708 13.4475V17.1686H71.2997V19.8505H73.6708V27.9296C73.6708 30.8126 75.0257 31.9524 78.4806 31.9524C79.1242 31.9524 79.7678 31.8853 80.2759 31.7848V29.17C79.8694 29.2035 79.5984 29.237 79.1242 29.237C77.7016 29.237 77.058 28.6001 77.058 27.125V19.8505H80.2759V17.1686H77.058V13.4475H73.6708ZM82.3082 31.8853H85.6955V17.068H82.3082V31.8853ZM84.0018 14.6208C85.1196 14.6208 86.0342 13.7157 86.0342 12.6094C86.0342 11.4696 85.1196 10.5645 84.0018 10.5645C82.8841 10.5645 81.9695 11.4696 81.9695 12.6094C81.9695 13.7157 82.8841 14.6208 84.0018 14.6208ZM94.9765 32.1871C99.4476 32.1871 102.191 29.304 102.191 24.4767C102.191 19.6828 99.4476 16.7663 94.9765 16.7663C90.5392 16.7663 87.7617 19.6828 87.7617 24.4767C87.7617 29.304 90.4715 32.1871 94.9765 32.1871ZM94.9765 29.3711C92.6054 29.3711 91.2505 27.5944 91.2505 24.4767C91.2505 21.3925 92.6054 19.5823 94.9765 19.5823C97.3137 19.5823 98.7025 21.3925 98.7025 24.4767C98.6686 27.5944 97.3137 29.3711 94.9765 29.3711ZM104.19 31.8853H107.577V23.2698C107.577 21.0908 108.864 19.7164 110.863 19.7164C112.929 19.7164 113.877 20.8562 113.877 23.1022V31.8853H117.265V22.2977C117.265 18.7442 115.435 16.7663 112.116 16.7663C109.88 16.7663 108.39 17.772 107.679 19.4482H107.442V17.068H104.156C104.19 17.068 104.19 31.8853 104.19 31.8853Z" fill="white" fill-opacity="0.5"/>
<path fill-rule="evenodd" clip-rule="evenodd" d="M4.94952 11.0903C5.93538 11.8856 6.29197 11.8228 8.13783 11.6973L25.5267 10.6508C25.9043 10.6508 25.5897 10.2741 25.4638 10.2322L22.5691 8.16017C22.0238 7.74158 21.2687 7.23927 19.8633 7.36485L3.04073 8.59969C2.43243 8.66248 2.30658 8.97642 2.55829 9.20665L4.94952 11.0903ZM5.99831 15.1297V33.3803C5.99831 34.364 6.48075 34.7198 7.59247 34.657L26.7014 33.5477C27.8131 33.4849 27.9389 32.8152 27.9389 32.0198V13.8949C27.9389 13.0995 27.6243 12.66 26.9531 12.7228L6.98417 13.8949C6.25002 13.9577 5.99831 14.3344 5.99831 15.1297ZM24.8555 16.1134C24.9814 16.6576 24.8555 17.2227 24.3101 17.2854L23.3872 17.4738V30.9524C22.5901 31.371 21.856 31.6222 21.2267 31.6222C20.2408 31.6222 19.9891 31.3082 19.255 30.3873L13.2349 20.9481V30.0734L15.1437 30.492C15.1437 30.492 15.1437 31.6013 13.6125 31.6013L9.37541 31.8524C9.24955 31.6013 9.37541 30.9943 9.79492 30.8687L10.9066 30.5548V18.4994L9.37541 18.3738C9.24955 17.8296 9.56419 17.0343 10.4242 16.9715L14.9759 16.6576L21.2477 26.2014V17.7668L19.6535 17.5785C19.5277 16.9087 20.0311 16.4064 20.6394 16.3436L24.8555 16.1134ZM1.63535 6.92533L19.1501 5.64863C21.2896 5.46026 21.856 5.58584 23.1984 6.56953L28.778 10.4833C29.7009 11.1531 30.0155 11.3415 30.0155 12.074V33.5686C30.0155 34.9081 29.5331 35.7034 27.8131 35.829L7.48759 37.0639C6.18709 37.1267 5.5788 36.9383 4.90757 36.0802L0.77535 30.7431C0.0411986 29.7595 -0.273438 29.0269 -0.273438 28.1688V9.06014C-0.273438 7.95087 0.22998 7.0509 1.63535 6.92533Z" fill="white" fill-opacity="0.5"/>
</g>
<defs>
<clipPath id="clip0_12122_10265">
<rect width="117.7" height="44" fill="white"/>
</clipPath>
</defs>
</svg>
