<svg width="155" height="44" viewBox="0 0 155 44" fill="none" xmlns="http://www.w3.org/2000/svg">
<g clip-path="url(#clip0_12122_10267)">
<path fill-rule="evenodd" clip-rule="evenodd" d="M70.5528 26.8198C69.4844 27.0663 68.9316 26.7375 68.9316 26.0298C68.9316 25.0601 69.9342 24.672 71.3666 24.672C71.9966 24.672 72.591 24.7264 72.591 24.7264C72.591 25.1415 71.6889 26.5579 70.5528 26.8198ZM71.64 17.1115C68.2198 17.1115 65.7643 18.3692 65.7643 18.3692V22.0665C65.7643 22.0665 68.4754 20.5079 70.6749 20.5079C72.4296 20.5079 72.6454 21.4548 72.5658 22.2402C72.5658 22.2402 72.0592 22.1063 70.5149 22.1063C66.8743 22.1063 65.0373 23.7608 65.0373 26.4134C65.0373 28.9297 67.102 29.9813 68.842 29.9813C71.3803 29.9813 72.4968 28.2751 72.8392 27.4658C73.0774 26.9044 73.1213 26.5259 73.3343 26.5259C73.5789 26.5259 73.4966 26.7974 73.4843 27.3561C73.4642 28.3349 73.5108 29.0747 73.6658 29.6983H77.032V23.6433C77.032 19.8629 75.6943 17.1115 71.64 17.1115Z" fill="white" fill-opacity="0.5"/>
<path fill-rule="evenodd" clip-rule="evenodd" d="M93.7956 23.5525C93.7956 22.4466 94.8238 21.4394 96.711 21.4394C98.767 21.4394 100.422 22.4297 100.792 22.6546V18.3745C100.792 18.3745 99.4857 17.1163 96.274 17.1163C92.8885 17.1163 90.0691 19.0973 90.0691 23.3614C90.0691 27.6251 92.6279 29.9897 96.2649 29.9897C99.1063 29.9897 100.8 28.4284 100.8 28.4284V24.3636C100.264 24.663 98.7711 25.6995 96.7316 25.6995C94.5723 25.6995 93.7956 24.7056 93.7956 23.5525ZM48.804 17.3965C48.8045 17.3993 49.0189 18.3191 48.7363 19.522C48.5923 20.1337 48.3276 20.654 48.6472 20.654C48.8676 20.654 48.868 20.4711 49.1547 19.8155C49.5739 18.8572 50.4576 17.1131 52.5228 17.1131C54.4859 17.1131 55.4108 18.3059 55.7171 19.4228C55.9503 20.2713 55.7464 20.654 56.0307 20.654C56.2328 20.654 56.3028 20.2137 56.5515 19.6569C56.9981 18.6593 57.9697 17.1131 59.9346 17.1131C62.8995 17.1131 64.0315 19.2541 64.0315 22.4658V29.7026H59.6269V23.0309C59.6269 21.9186 59.4473 20.8396 58.4332 20.8396C57.4937 20.8396 57.0557 22.5047 57.0557 23.5795V29.7053H52.5703V23.0313C52.5703 21.6081 52.3696 20.8401 51.3693 20.8401C50.5034 20.8401 49.9982 22.3721 49.9982 23.58V29.703H45.5306V17.3965H48.804ZM78.4982 17.4135C78.5 17.4144 79.2603 17.8528 80.7361 17.8528C82.2146 17.8528 82.9653 17.4135 82.9653 17.4135V29.7058H78.4982V17.4135ZM115.379 17.4135C115.381 17.4144 116.141 17.8528 117.617 17.8528C119.095 17.8528 119.846 17.4135 119.846 17.4135V29.7058H115.379V17.4135ZM88.8786 13.6709V29.7058H84.4109V13.6709H88.8786ZM106.102 13.6709C106.102 13.6723 106.287 14.1331 106.287 15.5038C106.287 17.5277 105.847 19.175 105.639 19.8027C105.528 20.1351 105.332 20.648 105.614 20.6572C105.777 20.6622 105.874 20.4172 106.074 19.992C106.272 19.5663 107.256 17.1158 109.842 17.1158C113.404 17.1158 113.928 20.0327 113.928 23.1914V29.7053H109.46V22.9239C109.46 21.5331 109.168 20.8423 108.236 20.8423C107.111 20.8423 106.713 22.5851 106.713 23.5827V29.7053H102.245V13.6705L106.102 13.6709ZM124.629 17.3965C124.63 17.3993 124.844 18.3191 124.561 19.522C124.417 20.1337 124.153 20.654 124.472 20.654C124.693 20.654 124.693 20.4711 124.98 19.8155C125.398 18.8572 126.283 17.1131 128.348 17.1131C130.401 17.1131 131.215 18.3114 131.542 19.4228C131.762 20.1675 131.571 20.654 131.856 20.654C132.058 20.654 132.128 20.2137 132.377 19.6569C132.822 18.6593 133.795 17.1131 135.76 17.1131C138.725 17.1131 139.857 19.2541 139.857 22.4658V29.7026H135.452V23.0309C135.452 21.9186 135.272 20.8396 134.258 20.8396C133.319 20.8396 132.88 22.5047 132.88 23.5795V29.7053H128.395V23.0313C128.395 21.6081 128.195 20.8401 127.194 20.8401C126.328 20.8401 125.823 22.3721 125.823 23.58V29.703H121.356V17.3965H124.629ZM80.7183 13.5466C79.2086 13.5466 77.9838 14.3457 77.9838 15.3314C77.9838 16.3171 79.2082 17.1163 80.7183 17.1163C82.2288 17.1163 83.4531 16.3171 83.4531 15.3314C83.4531 14.3457 82.2293 13.5466 80.7183 13.5466ZM117.599 13.5466C116.089 13.5466 114.864 14.3457 114.864 15.3314C114.864 16.3171 116.089 17.1163 117.599 17.1163C119.109 17.1163 120.334 16.3171 120.334 15.3314C120.334 14.3457 119.11 13.5466 117.599 13.5466Z" fill="white" fill-opacity="0.5"/>
<path fill-rule="evenodd" clip-rule="evenodd" d="M147.467 27.0539C146.443 27.0539 145.689 25.7551 145.689 23.9451C145.689 22.1872 146.463 20.8371 147.431 20.8371C148.674 20.8371 149.204 21.9769 149.204 23.9451C149.204 25.9928 148.715 27.0539 147.467 27.0539ZM148.692 17.1088C146.397 17.1088 145.344 18.8301 144.887 19.8107C144.585 20.4586 144.601 20.6492 144.379 20.6492C144.061 20.6492 144.325 20.1289 144.469 19.5172C144.752 18.3125 144.537 17.3922 144.537 17.3922H141.265V33.0933H145.731V28.1155C146.259 29.012 147.238 29.9698 148.747 29.9698C151.977 29.9698 153.603 27.2373 153.603 23.5455C153.603 19.3613 151.657 17.1088 148.693 17.1088" fill="white" fill-opacity="0.5"/>
<path fill-rule="evenodd" clip-rule="evenodd" d="M29.7377 20.824C30.0381 20.7883 30.3257 20.7865 30.5904 20.824C30.7436 20.4728 30.7696 19.868 30.632 19.2092C30.4276 18.2299 30.1506 17.6374 29.5782 17.7297C29.0058 17.8221 28.9848 18.5316 29.1896 19.5105C29.3048 20.0614 29.5096 20.5323 29.7377 20.824Z" fill="white" fill-opacity="0.5"/>
<path fill-rule="evenodd" clip-rule="evenodd" d="M24.8271 21.5989C25.2362 21.7786 25.4882 21.8979 25.5865 21.7937C25.65 21.7288 25.6308 21.6049 25.533 21.4453C25.3309 21.1157 24.9153 20.781 24.4741 20.5931C23.5725 20.205 22.4968 20.3339 21.667 20.9301C21.3931 21.1308 21.1335 21.4087 21.1705 21.5774C21.1824 21.6318 21.2235 21.673 21.3195 21.6867C21.5454 21.7123 22.3345 21.3136 23.2438 21.2579C23.8853 21.2185 24.4174 21.4193 24.8271 21.5989Z" fill="white" fill-opacity="0.5"/>
<path fill-rule="evenodd" clip-rule="evenodd" d="M24.0052 22.069C23.4717 22.1531 23.1777 22.3291 22.9889 22.4923C22.828 22.6331 22.7283 22.789 22.7292 22.8983C22.7297 22.9504 22.7521 22.9806 22.7699 22.9957C22.7942 23.0172 22.823 23.029 22.8577 23.029C22.9779 23.029 23.2481 22.9207 23.2481 22.9207C23.9902 22.6551 24.4798 22.6875 24.9649 22.7424C25.2328 22.7726 25.3599 22.789 25.4184 22.6971C25.4358 22.6706 25.4568 22.6135 25.4033 22.5266C25.2785 22.3241 24.7395 21.9816 24.0052 22.069Z" fill="white" fill-opacity="0.5"/>
<path fill-rule="evenodd" clip-rule="evenodd" d="M28.0807 23.7936C28.4427 23.9714 28.8414 23.9015 28.9713 23.6377C29.1011 23.3739 28.9127 23.0155 28.5506 22.8376C28.1886 22.6598 27.7899 22.7297 27.66 22.9935C27.5302 23.2578 27.7186 23.6157 28.0807 23.7936Z" fill="white" fill-opacity="0.5"/>
<path fill-rule="evenodd" clip-rule="evenodd" d="M30.409 21.7597C30.115 21.7547 29.8709 22.0774 29.864 22.4811C29.8571 22.8848 30.0903 23.2154 30.3843 23.2204C30.6782 23.2254 30.9224 22.9027 30.9292 22.499C30.9361 22.0957 30.7029 21.7647 30.409 21.7597Z" fill="white" fill-opacity="0.5"/>
<path fill-rule="evenodd" clip-rule="evenodd" d="M10.6495 29.0333C10.5763 28.9414 10.4561 28.9693 10.3395 28.9967C10.2581 29.0159 10.1662 29.0369 10.0652 29.0355C9.84895 29.0314 9.66562 28.9391 9.56275 28.7809C9.4288 28.5752 9.43657 28.2684 9.58424 27.9173L9.65327 27.76C9.88918 27.2306 10.2837 26.345 9.84072 25.501C9.50698 24.8656 8.96293 24.4701 8.30869 24.3869C7.68052 24.3073 7.03406 24.54 6.62168 24.9949C5.97111 25.7127 5.86915 26.6897 5.99488 27.0349C6.04105 27.1611 6.11329 27.1963 6.16541 27.2036C6.27605 27.2182 6.43972 27.1378 6.54213 26.8621L6.57139 26.7725C6.61711 26.6266 6.70214 26.3551 6.84158 26.1374C7.00983 25.875 7.27134 25.6944 7.57857 25.6281C7.89128 25.5609 8.21132 25.6208 8.47923 25.7964C8.93504 26.0945 9.1106 26.6532 8.91584 27.1858C8.81526 27.4615 8.65158 27.9886 8.6877 28.4215C8.76085 29.298 9.29987 29.65 9.78403 29.6875C10.2549 29.7053 10.5841 29.4406 10.6673 29.2477C10.7162 29.1334 10.6751 29.0639 10.6481 29.0342" fill="white" fill-opacity="0.5"/>
<path fill-rule="evenodd" clip-rule="evenodd" d="M15.1284 12.9359C16.6645 11.1611 18.555 9.61812 20.2488 8.75175C20.3073 8.72158 20.3695 8.78513 20.338 8.84273C20.2036 9.08641 19.9443 9.60805 19.8625 10.0035C19.8497 10.0652 19.9169 10.1114 19.969 10.0762C21.0228 9.35798 22.8557 8.58808 24.4636 8.48932C24.5326 8.48521 24.566 8.57345 24.5112 8.61597C24.2666 8.80341 23.9991 9.06309 23.8039 9.32552C23.7705 9.37032 23.8021 9.43433 23.8578 9.43479C24.9866 9.44302 26.5781 9.83802 27.6154 10.42C27.6854 10.4593 27.6356 10.5951 27.5569 10.5773C25.9874 10.2175 23.4185 9.94455 20.7494 10.5956C18.367 11.1767 16.5484 12.0741 15.2221 13.0388C15.1549 13.0877 15.0739 12.9985 15.1284 12.9359ZM22.778 30.1316L22.7784 30.1325L22.7793 30.1343L22.778 30.1316ZM29.1118 30.8791C29.1575 30.8599 29.1886 30.8082 29.1836 30.7565C29.1772 30.693 29.1205 30.6468 29.0569 30.6532C29.0569 30.6532 25.7794 31.1383 22.6829 30.0049C23.0203 28.9086 23.9168 29.3045 25.2724 29.4138C27.7156 29.5596 29.9055 29.2026 31.5239 28.7381C32.9261 28.3357 34.7681 27.5421 36.1986 26.4128C36.681 27.4726 36.8515 28.6393 36.8515 28.6393C36.8515 28.6393 37.225 28.5726 37.5373 28.7646C37.8322 28.9461 38.0484 29.3233 37.9007 30.2989C37.5999 32.1212 36.8254 33.6007 35.5234 34.9617C34.7306 35.8148 33.7687 36.5564 32.6678 37.0959C32.0831 37.4031 31.4608 37.6687 30.8029 37.8831C25.8946 39.4865 20.8701 37.724 19.2508 33.9394C19.1214 33.6551 19.0121 33.357 18.9262 33.0457C18.2363 30.5517 18.8219 27.5594 20.6534 25.6758C20.7664 25.556 20.8816 25.4139 20.8816 25.236C20.8816 25.0874 20.7869 24.9306 20.7051 24.8191C20.0641 23.8896 17.8445 22.3059 18.2902 19.2409C18.6103 17.0391 20.5359 15.4884 22.3313 15.5803L22.7862 15.6063C23.5643 15.6525 24.2428 15.7522 24.8833 15.7791C25.9554 15.8258 26.9191 15.6699 28.0612 14.7185C28.4461 14.3975 28.7552 14.1191 29.2778 14.0309C29.3326 14.0213 29.4693 13.9723 29.7423 13.9851C30.0211 14.0002 30.2863 14.0766 30.5245 14.2352C31.4398 14.8442 31.5696 16.3195 31.6172 17.3985C31.6442 18.0143 31.7187 19.5047 31.7443 19.9327C31.8023 20.911 32.0597 21.0487 32.58 21.2201C32.8726 21.3166 33.1442 21.3883 33.5447 21.5008C34.7562 21.841 35.4744 22.1861 35.9275 22.6296C36.1977 22.9067 36.3234 23.2011 36.3623 23.4818C36.5049 24.5242 35.5531 25.8116 33.0326 26.9815C30.2776 28.2603 26.9351 28.584 24.6259 28.3266L23.8167 28.2351C21.9697 27.9864 20.9159 30.3734 22.0245 32.0092C22.7391 33.0635 24.6853 33.7493 26.6325 33.7497C31.0969 33.7502 34.5285 31.8437 35.805 30.1974L35.9069 30.052C35.97 29.9574 35.9179 29.9052 35.8397 29.9587C34.7969 30.6724 30.1647 33.5056 25.2097 32.6529C25.2097 32.6529 24.6076 32.5537 24.0581 32.3402C23.6215 32.1701 22.7071 31.7495 22.596 30.8118C26.5945 32.0485 29.1118 30.8791 29.1118 30.8791ZM7.1491 21.3765C5.75834 21.6467 4.53263 22.4348 3.78331 23.5239C3.33526 23.1503 2.5009 22.4271 2.35323 22.145C1.15678 19.8728 3.65895 15.4555 5.40722 12.9606C9.72762 6.79545 16.494 2.12896 19.6261 2.97567C20.1354 3.11969 21.822 5.07506 21.822 5.07506C21.822 5.07506 18.6907 6.81237 15.7872 9.23408C11.8746 12.2465 8.91978 16.6249 7.1491 21.3765ZM9.48577 31.8026C9.27547 31.8387 9.06059 31.8529 8.84389 31.8474C6.75135 31.7911 4.49148 29.9075 4.26701 27.6737C4.01876 25.2045 5.28058 23.3044 7.51439 22.8536C7.78139 22.7997 8.10416 22.7686 8.45208 22.7869C9.70385 22.8555 11.5481 23.8165 11.9692 26.5431C12.3423 28.958 11.7498 31.4167 9.48577 31.8026ZM37.8294 27.43C37.8116 27.3665 37.6945 26.9399 37.5341 26.4256C37.3736 25.9108 37.2076 25.5492 37.2076 25.5492C37.8514 24.5859 37.8628 23.7241 37.7768 23.2363C37.6854 22.6314 37.4335 22.1162 36.926 21.5831C36.4185 21.0505 35.3803 20.5046 33.9214 20.095L33.1561 19.8824C33.1524 19.8508 33.1158 18.0779 33.0829 17.3167C33.0587 16.7662 33.0116 15.9072 32.7451 15.0614C32.4273 13.9161 31.8741 12.914 31.1833 12.273C33.0898 10.297 34.2798 8.11992 34.2766 6.25277C34.2711 2.66158 29.8607 1.57486 24.4252 3.82558L23.2736 4.31431C23.2685 4.30928 21.1915 2.27161 21.1604 2.24418C14.9633 -3.16112 -4.41219 18.3755 1.7822 23.6061L3.13593 24.7532C2.78481 25.663 2.64674 26.7054 2.75967 27.826C2.90414 29.2656 3.64661 30.6454 4.85038 31.7116C5.99288 32.7238 7.49519 33.3648 8.95269 33.3634C11.3634 38.9186 16.8716 42.3265 23.3298 42.5185C30.2575 42.7243 36.0729 39.4737 38.5097 33.6345C38.6693 33.2249 39.3454 31.3783 39.3454 29.748C39.3454 28.1099 38.4192 27.43 37.8294 27.43Z" fill="white" fill-opacity="0.5"/>
</g>
<defs>
<clipPath id="clip0_12122_10267">
<rect width="154" height="44" fill="white" transform="translate(0.224609)"/>
</clipPath>
</defs>
</svg>
