<svg width="142" height="44" viewBox="0 0 142 44" fill="none" xmlns="http://www.w3.org/2000/svg">
<g clip-path="url(#clip0_12122_10269)">
<path fill-rule="evenodd" clip-rule="evenodd" d="M16.8431 7.92155L3.20262 13.4015C2.44408 13.7063 2.45194 14.7525 3.21523 15.0463L16.9126 20.32C18.116 20.7834 19.4563 20.7834 20.6598 20.32L34.3573 15.0461C35.1204 14.7525 35.1287 13.7065 34.3697 13.4017L20.7297 7.92135C19.4852 7.4214 18.0873 7.4214 16.8429 7.92135L16.8431 7.92155ZM56.9312 24.6529L54.4833 18.2464C54.3834 17.9843 54.0017 17.9843 53.9016 18.2464L51.4541 24.6533C51.4368 24.6988 51.431 24.7478 51.4373 24.7959C51.4436 24.8441 51.4619 24.8901 51.4904 24.93C51.519 24.9698 51.5571 25.0024 51.6015 25.0249C51.6458 25.0473 51.6951 25.0591 51.7451 25.0591H56.6402C56.6903 25.0591 56.7396 25.0473 56.7839 25.0248C56.8282 25.0023 56.8663 24.9697 56.8949 24.9298C56.9234 24.8899 56.9416 24.8439 56.9479 24.7958C56.9542 24.7476 56.9484 24.6986 56.931 24.6531L56.9312 24.6529ZM58.0616 28.2539H50.3236C50.2603 28.2539 50.1985 28.2727 50.1465 28.3078C50.0945 28.3429 50.0548 28.3926 50.0328 28.4503L48.5093 32.4366C48.4873 32.4942 48.4476 32.5439 48.3956 32.579C48.3437 32.6141 48.2819 32.6329 48.2186 32.6329H44.8645C44.8138 32.6329 44.7639 32.6208 44.7191 32.5978C44.6743 32.5747 44.636 32.5413 44.6076 32.5005C44.5792 32.4597 44.5615 32.4128 44.5561 32.3639C44.5507 32.3149 44.5578 32.2654 44.5766 32.2197L52.2987 13.5427C52.3218 13.4869 52.3616 13.4391 52.413 13.4054C52.4643 13.3718 52.5248 13.3539 52.5868 13.3539H55.7984C55.9249 13.3539 56.0389 13.4286 56.0862 13.5427L63.8081 32.2195C63.8271 32.2652 63.8342 32.3148 63.8288 32.3638C63.8234 32.4128 63.8058 32.4597 63.7774 32.5006C63.749 32.5414 63.7106 32.5748 63.6658 32.598C63.621 32.6211 63.571 32.6331 63.5202 32.6331H60.1668C60.1035 32.6331 60.0416 32.6143 59.9897 32.5791C59.9377 32.544 59.898 32.4942 59.876 32.4366L58.3523 28.4503C58.3303 28.3926 58.2906 28.3429 58.2387 28.3078C58.1867 28.2727 58.1249 28.2539 58.0616 28.2539ZM65.3796 19.9086H68.2483C68.3306 19.9086 68.4095 19.9404 68.4676 19.9968C68.5258 20.0533 68.5585 20.1299 68.5585 20.2098V32.3318C68.5585 32.4116 68.5258 32.4882 68.4676 32.5447C68.4095 32.6012 68.3306 32.6329 68.2483 32.6329H65.3796C65.2973 32.6329 65.2184 32.6012 65.1602 32.5447C65.1021 32.4882 65.0694 32.4116 65.0694 32.3318V20.2096C65.0694 20.1297 65.1021 20.0531 65.1602 19.9966C65.2184 19.9402 65.2973 19.9084 65.3796 19.9084V19.9086ZM79.0209 22.8573C79.0209 22.9372 78.9882 23.0138 78.93 23.0703C78.8718 23.1267 78.7929 23.1585 78.7107 23.1585H78.6238C77.2054 23.1585 76.165 23.489 75.5032 24.1499C74.8411 24.8109 74.5106 25.9035 74.5106 27.4275V32.3318C74.5106 32.4116 74.4779 32.4882 74.4197 32.5447C74.3616 32.6012 74.2827 32.6329 74.2004 32.6329H71.3598C71.2775 32.6329 71.1986 32.6012 71.1404 32.5447C71.0823 32.4882 71.0496 32.4116 71.0496 32.3318V20.2096C71.0496 20.1297 71.0823 20.0531 71.1404 19.9966C71.1986 19.9402 71.2775 19.9084 71.3598 19.9084H74.1719C74.2541 19.9084 74.333 19.9402 74.3912 19.9966C74.4494 20.0531 74.482 20.1297 74.482 20.2096V22.6073H74.5389C74.8793 21.6159 75.4182 20.8543 76.1561 20.3214C76.8933 19.7892 77.8012 19.5227 78.879 19.5227H79.0209V22.8571V22.8573ZM86.8648 22.7453C86.7825 22.7453 86.7036 22.777 86.6454 22.8335C86.5872 22.8899 86.5546 22.9666 86.5546 23.0464V28.0884C86.5546 28.6026 86.658 28.9699 86.8664 29.1901C87.0742 29.4104 87.4337 29.5206 87.9443 29.5206H88.2298C88.3121 29.5206 88.391 29.5523 88.4492 29.6088C88.5074 29.6653 88.54 29.7419 88.54 29.8218V32.3591C88.54 32.4389 88.5074 32.5155 88.4492 32.572C88.391 32.6285 88.3121 32.6602 88.2298 32.6602H87.0081C85.741 32.6602 84.7672 32.3436 84.0864 31.7101C83.4054 31.0767 83.065 30.136 83.065 28.8872V23.0464C83.065 22.9666 83.0324 22.8899 82.9742 22.8335C82.916 22.777 82.8371 22.7453 82.7548 22.7453H80.9642C80.8819 22.7453 80.803 22.7135 80.7448 22.657C80.6867 22.6006 80.654 22.524 80.654 22.4441V20.2096C80.654 20.1297 80.6867 20.0531 80.7448 19.9966C80.803 19.9402 80.8819 19.9084 80.9642 19.9084H82.7551C82.8373 19.9084 82.9162 19.8767 82.9744 19.8202C83.0326 19.7637 83.0652 19.6871 83.0652 19.6072V15.1144C83.0652 15.0345 83.0979 14.9579 83.1561 14.9014C83.2143 14.8449 83.2932 14.8132 83.3754 14.8132H86.2442C86.3264 14.8132 86.4053 14.8449 86.4635 14.9014C86.5217 14.9579 86.5544 15.0345 86.5544 15.1144V19.6072C86.5544 19.6871 86.587 19.7637 86.6452 19.8202C86.7034 19.8767 86.7823 19.9084 86.8646 19.9084H88.939C89.0212 19.9084 89.1001 19.9402 89.1583 19.9966C89.2165 20.0531 89.2492 20.1297 89.2492 20.2096V22.4443C89.2492 22.5242 89.2165 22.6008 89.1583 22.6572C89.1001 22.7137 89.0212 22.7455 88.939 22.7455H86.8648V22.7453ZM100.001 28.8596C100.653 28.1987 100.979 27.3357 100.979 26.2706C100.979 25.206 100.653 24.3427 100.001 23.6817C99.3484 23.0207 98.4925 22.6902 97.4334 22.6902C96.3742 22.6902 95.5189 23.0207 94.8662 23.6817C94.214 24.3427 93.8877 25.206 93.8877 26.2706C93.8877 27.3357 94.214 28.1987 94.8662 28.8596C95.5189 29.5206 96.3742 29.8511 97.4334 29.8511C98.4925 29.8511 99.3484 29.5206 100.001 28.8596ZM93.3771 32.2472C92.4126 31.715 91.6511 30.9389 91.0936 29.92C90.5355 28.901 90.2567 27.6847 90.2567 26.2706C90.2567 24.8571 90.5355 23.6403 91.0936 22.6214C91.6511 21.6024 92.4126 20.827 93.3771 20.2941C94.3416 19.7616 95.4004 19.4954 96.5541 19.4954C97.5753 19.4954 98.4499 19.6882 99.1784 20.0737C99.9059 20.4592 100.487 21.0011 100.923 21.6988H100.979V20.2096C100.979 20.1297 101.012 20.0531 101.07 19.9966C101.128 19.9402 101.207 19.9084 101.29 19.9084H104.13C104.212 19.9084 104.291 19.9402 104.349 19.9966C104.408 20.0531 104.44 20.1297 104.44 20.2096V32.3316C104.44 32.4114 104.408 32.488 104.349 32.5445C104.291 32.601 104.212 32.6327 104.13 32.6327H101.29C101.207 32.6327 101.128 32.601 101.07 32.5445C101.012 32.488 100.979 32.4114 100.979 32.3316V30.8426H100.923C100.487 31.5407 99.9059 32.082 99.1782 32.4675C98.4499 32.853 97.5755 33.0457 96.5541 33.0457C95.4004 33.0457 94.3416 32.7795 93.3771 32.2472ZM116.253 28.8596C116.906 28.1987 117.232 27.3357 117.232 26.2706C117.232 25.206 116.906 24.3427 116.253 23.6817C115.601 23.0207 114.745 22.6902 113.686 22.6902C112.627 22.6902 111.771 23.0207 111.119 23.6817C110.467 24.3427 110.14 25.206 110.14 26.2706C110.14 27.3357 110.467 28.1987 111.119 28.8596C111.771 29.5206 112.627 29.8511 113.686 29.8511C114.745 29.8511 115.601 29.5206 116.253 28.8596ZM111.941 32.4675C111.213 32.082 110.632 31.5407 110.197 30.8426H110.14V32.3316C110.14 32.4114 110.107 32.488 110.049 32.5445C109.991 32.601 109.912 32.6327 109.83 32.6327H106.961C106.879 32.6327 106.8 32.601 106.742 32.5445C106.684 32.488 106.651 32.4114 106.651 32.3316V13.6545C106.651 13.5746 106.684 13.498 106.742 13.4415C106.8 13.385 106.879 13.3533 106.961 13.3533H109.83C109.912 13.3533 109.991 13.385 110.049 13.4415C110.107 13.498 110.14 13.5746 110.14 13.6545V21.6986H110.197C110.632 21.0009 111.213 20.4592 111.941 20.0737C112.669 19.688 113.544 19.4952 114.566 19.4952C115.719 19.4952 116.778 19.7614 117.743 20.2939C118.707 20.8268 119.468 21.6022 120.026 22.621C120.584 23.6405 120.863 24.8573 120.863 26.2708C120.863 27.6849 120.584 28.901 120.026 29.9202C119.468 30.9391 118.707 31.7152 117.743 32.2472C116.778 32.7797 115.719 33.0461 114.566 33.0461C113.544 33.0461 112.67 32.8534 111.942 32.4677L111.941 32.4675ZM125.696 32.6329H122.828C122.745 32.6329 122.667 32.6012 122.608 32.5447C122.55 32.4882 122.518 32.4116 122.518 32.3318V13.6551C122.518 13.5752 122.55 13.4986 122.608 13.4421C122.667 13.3856 122.745 13.3539 122.828 13.3539H125.696C125.779 13.3539 125.858 13.3856 125.916 13.4421C125.974 13.4986 126.007 13.5752 126.007 13.6551V32.3318C126.007 32.4116 125.974 32.4882 125.916 32.5447C125.858 32.6012 125.779 32.6329 125.696 32.6329ZM132.463 22.8557C131.988 23.2159 131.667 23.7359 131.5 24.4162C131.455 24.6037 131.605 24.7836 131.804 24.7836H137.263C137.453 24.7836 137.602 24.6189 137.571 24.4374C137.462 23.7939 137.178 23.2809 136.718 22.897C136.18 22.4473 135.475 22.2224 134.605 22.2224C133.735 22.2224 133.021 22.4334 132.463 22.8557ZM139.456 21.2719C140.572 22.4565 141.129 24.1321 141.129 26.2983V26.6581C141.129 26.738 141.097 26.8146 141.039 26.871C140.98 26.9275 140.902 26.9593 140.819 26.9593H131.699C131.653 26.9593 131.608 26.9691 131.567 26.9877C131.526 27.0064 131.49 27.0335 131.46 27.0673C131.431 27.1011 131.41 27.1406 131.398 27.1832C131.386 27.2258 131.384 27.2704 131.392 27.3138C131.537 28.1186 131.904 28.7579 132.492 29.2315C133.163 29.7736 134.009 30.0441 135.031 30.0441C136.349 30.0441 137.569 29.5445 138.691 28.5452C138.828 28.4231 139.046 28.4491 139.152 28.5974L140.547 30.541C140.59 30.6014 140.61 30.6754 140.601 30.7488C140.592 30.8221 140.556 30.8898 140.499 30.9389C139.815 31.5207 139.054 32.0116 138.236 32.3988C137.328 32.8301 136.26 33.0461 135.031 33.0461C133.612 33.0461 132.373 32.7658 131.314 32.2061C130.255 31.6463 129.433 30.8568 128.847 29.8375C128.26 28.8185 127.967 27.6389 127.967 26.2983C127.967 24.9583 128.251 23.7741 128.818 22.7455C129.385 21.7175 130.18 20.9188 131.201 20.3493C132.222 19.7805 133.414 19.4956 134.775 19.4956C136.779 19.4956 138.34 20.0879 139.456 21.2719ZM68.9332 15.4272C68.9332 16.5632 67.9846 17.4842 66.8143 17.4842C65.6439 17.4842 64.6953 16.5632 64.6953 15.427C64.6953 14.2908 65.6441 13.3698 66.8143 13.3698C67.9846 13.3698 68.9332 14.2908 68.9332 15.427V15.4272ZM20.0015 36.3743V23.1999C20.0015 23.0221 20.0565 22.8484 20.1594 22.7014C20.2623 22.5543 20.4083 22.4406 20.5785 22.3751L35.8415 16.6231C36.4415 16.3922 37.0923 16.8213 37.0923 17.4479V30.6223C37.0923 30.8001 37.0373 30.9738 36.9344 31.1209C36.8315 31.268 36.6855 31.3816 36.5153 31.4472L21.2522 37.1991C20.6523 37.43 20.0015 37.0007 20.0015 36.3743ZM11.9076 26.0029L11.9075 26.003L11.4476 26.2188L1.88562 30.6671C1.2797 30.951 0.505859 30.5221 0.505859 29.8684V17.5031C0.505859 17.2666 0.630766 17.0624 0.798274 16.9088C0.798315 16.9087 0.798357 16.9087 0.798398 16.9086L0.798299 16.9086C0.858431 16.8505 0.92563 16.7998 0.99837 16.7577C1.00535 16.7536 1.01238 16.7497 1.01947 16.7458C1.02293 16.7439 1.0264 16.742 1.02989 16.7401C1.1155 16.6902 1.21485 16.654 1.32019 16.6339C1.46602 16.606 1.62336 16.6089 1.77173 16.6488C1.802 16.6569 1.8319 16.6666 1.86125 16.6779L16.3612 22.256C17.0982 22.5399 17.1561 23.5426 16.4373 23.8797C16.4373 23.8797 16.4373 23.8797 16.4373 23.8797V23.8795L11.9076 26.0029Z" fill="white" fill-opacity="0.5"/>
</g>
<defs>
<clipPath id="clip0_12122_10269">
<rect width="140.8" height="44" fill="white" transform="translate(0.75)"/>
</clipPath>
</defs>
</svg>
