<svg width="150" height="44" viewBox="0 0 150 44" fill="none" xmlns="http://www.w3.org/2000/svg">
<g clip-path="url(#clip0_12122_10271)">
<path fill-rule="evenodd" clip-rule="evenodd" d="M8.79586 14.174C9.12326 13.8194 9.15055 13.2737 9.15055 12.9463V9.31753C9.15055 8.30803 9.15055 7.70779 9.20511 7.29853C9.2324 7.08026 9.34153 6.80742 9.3961 6.671C9.42338 6.61644 9.3961 6.61644 9.36882 6.64372L1.40196 14.747C1.37467 14.7743 1.37467 14.8016 1.42924 14.7743C1.56566 14.7197 1.8385 14.6106 2.05677 14.5833C2.46602 14.5287 3.06627 14.5287 4.07577 14.5287H7.56809C7.89549 14.5287 8.44117 14.5014 8.79586 14.174ZM14.962 35.5645C15.153 36.0556 15.6441 36.8468 16.5717 37.4471C17.3084 37.9655 18.427 38.4566 19.9276 38.4566C19.9276 38.4566 26.9123 38.8658 28.0855 30.4625C28.1673 30.4625 29.1768 21.8408 27.5125 12.9463C26.8651 9.53495 23.718 9.0324 22.0324 8.76323C21.871 8.73747 21.723 8.71384 21.5919 8.69C20.0095 8.41716 16.8719 7.87149 16.8719 7.87149C16.8719 7.87149 16.5172 6.17989 14.8529 5.77064C14.7949 5.75614 14.7411 5.7425 14.6908 5.72971C14.4569 5.67031 14.2958 5.62939 14.1162 5.60694C13.8161 5.57965 13.4887 5.55237 13.2158 5.55237H12.561C11.2241 5.55237 10.3237 6.39817 10.1873 7.40766V7.57137V13.1645C10.1873 13.9012 10.0782 14.5287 9.61437 14.9653C9.25968 15.2927 8.71401 15.5382 7.75907 15.5382H2.35689H2.19319C1.1564 15.6746 0.337891 16.575 0.337891 17.9119C0.339184 17.9274 0.340477 17.943 0.341777 17.9587C0.367884 18.2732 0.396338 18.616 0.474309 19.0578C0.626394 20.079 0.864983 21.152 1.03853 21.9325C1.08292 22.1322 1.12306 22.3127 1.1564 22.4683C1.86578 25.6059 3.22997 26.7246 3.22997 26.7246C5.24897 28.7981 8.16833 29.6712 10.924 29.5075C11.0058 29.5075 11.2787 29.4802 11.5242 29.4257C11.7698 29.3711 11.9881 29.2892 12.1518 29.2074C13.8434 28.1706 14.6891 24.3509 14.6891 24.3509C14.8801 26.8883 17.7449 27.7886 18.8909 27.9251C18.9181 27.9251 19.3001 27.9796 19.7094 28.0615C19.742 28.0696 19.7749 28.0778 19.8079 28.086C20.1061 28.1599 20.4132 28.2361 20.6097 28.3343C22.083 28.9891 23.2017 30.4625 23.2017 32.1268C23.2017 33.9821 21.7011 35.4827 19.8458 35.4827C19.1364 35.4827 18.4816 35.2098 17.9905 34.7187C17.7176 34.4459 17.5539 34.0639 17.5539 33.6546C17.5539 33.2727 17.7722 32.918 18.0451 32.6997C18.2553 32.5129 18.6654 32.446 18.8647 32.4135C18.8982 32.408 18.9258 32.4035 18.9454 32.3996C19.0818 32.3723 19.2728 32.3177 19.4092 32.2359C19.7912 32.0176 20.0368 31.6357 20.0368 31.1718C20.0368 30.4897 19.4911 29.9441 18.809 29.9441C16.5172 29.9441 14.6619 31.7994 14.6619 34.0639C14.6619 34.5823 14.771 35.1007 14.962 35.5645ZM20.9098 20.5312C21.1827 19.8491 21.9466 19.4944 22.847 19.5762C23.7474 19.6854 24.4022 20.2038 24.5113 20.9677C24.5113 21.0018 24.513 21.0376 24.5147 21.0734C24.5198 21.1809 24.5249 21.2883 24.484 21.3497C24.4295 21.4315 24.3749 21.4588 24.3203 21.4588C23.9656 21.5134 23.42 21.4588 22.6287 21.377C21.8375 21.2951 21.2918 21.2133 20.9644 21.0496C20.9098 21.0223 20.8553 20.995 20.828 20.9131C20.8007 20.8313 20.8553 20.6676 20.9098 20.5312ZM37.4159 28.5802L36.4883 28.7712L36.5156 29.5351H51.8218L52.2038 23.1234H51.3307C50.6213 24.8423 50.1029 25.9882 49.6118 26.7249C48.7114 28.0618 48.2749 28.3346 46.0922 28.3346C43.4457 28.3346 43.3638 28.0618 43.3638 25.6335V20.3951H44.1005C46.0922 20.3951 46.4469 20.5315 46.7743 21.2136C47.1563 22.0048 47.3745 22.5505 47.6201 23.3963H48.4386V16.3571H47.6201C47.3745 17.2301 47.1563 17.7485 46.7743 18.4306C46.4469 19.0309 46.0103 19.2491 44.1005 19.2491H43.3638V12.2918C43.7731 12.1826 44.4552 12.0189 45.8466 12.0189C47.7292 12.0189 48.3022 12.1281 49.1753 13.3831C49.5845 13.9834 50.021 14.7746 50.7031 16.2752H51.5489L51.2761 10.8457H36.4883V11.6097L37.4159 11.8007C38.2072 11.9917 38.4527 12.1281 38.4527 13.7651V26.6158C38.4527 28.2528 38.2345 28.3619 37.4159 28.5802ZM52.8858 16.4116C53.5679 16.6299 53.8681 17.0119 54.4956 18.5398L58.9428 29.5351H61.2347L65.4091 18.8399C66.0639 17.0664 66.364 16.6572 67.0734 16.4116L67.5918 16.2479V15.5385H62.5989V16.2479L63.3355 16.4389C63.9085 16.5753 64.1813 16.8755 64.1813 17.4757C64.1813 17.8577 64.0722 18.3215 63.8266 18.9763L61.6439 25.197H61.5075L59.243 18.9763C59.0247 18.3761 58.8883 17.9122 58.8883 17.5303C58.8883 16.8755 59.1611 16.6026 59.7341 16.4389L60.4707 16.2479V15.5385H52.3675V16.2479L52.8858 16.4116ZM74.0035 15.1839C70.4293 15.1839 66.9643 17.7758 66.9643 22.4686C66.9643 27.0523 69.2834 29.8352 73.9762 29.8898C76.6773 29.8898 78.7236 28.4711 79.6785 27.4343V26.5339C78.669 27.0523 77.3867 27.5434 75.7224 27.5434C72.9394 27.5434 71.2751 26.3429 71.1933 21.923H80.115C80.0332 17.0392 77.7141 15.1839 74.0035 15.1839ZM75.8042 20.6406L71.1933 20.8862C71.3024 17.503 72.3937 16.1934 73.7579 16.1934C75.3677 16.1934 75.8042 17.3938 75.8042 20.6406ZM91.3287 15.102C89.5279 15.102 87.9728 16.4389 87.2088 17.2574L87.127 17.2301L87.1815 15.3748L86.8814 15.1566L81.2064 15.8114V16.3571L82.1068 16.9573L82.1278 16.9716C82.8732 17.4773 83.0071 17.5682 83.0071 18.7035V27.0796C83.0071 28.2255 82.898 28.3619 81.9976 28.6075L81.2882 28.7985V29.5351H89.0641V28.7985L88.1637 28.6075C87.3452 28.4711 87.2361 28.3346 87.2361 27.0796V18.3488C87.5908 18.0214 88.1638 17.6667 88.6549 17.6667C88.9004 17.6667 89.2551 17.7485 89.4188 18.0487C89.7189 18.7853 90.4829 19.3037 91.3287 19.3037C92.5019 19.3037 93.4295 18.3761 93.4295 17.2029C93.4295 16.0297 92.4746 15.102 91.3287 15.102ZM94.9574 28.6075L94.248 28.7985H94.3026V29.5351H101.806V28.7985L101.151 28.6348C100.332 28.4165 100.25 28.3619 100.25 27.0796V18.0214L100.261 18.0191C100.861 17.8825 101.811 17.6667 102.761 17.6667C104.016 17.6667 104.616 18.1851 104.616 19.8221V27.0523C104.616 28.3074 104.534 28.3892 103.715 28.6075L103.061 28.7712V29.5078H110.564V28.7712L109.854 28.5802C108.981 28.3619 108.872 28.2255 108.872 27.0523V18.758C108.872 16.3298 107.644 15.1566 105.353 15.1566C103.388 15.1566 101.615 16.0569 100.196 17.0664H100.087L100.141 15.3476L99.8412 15.1566L94.1662 15.8114V16.3571L95.0665 16.9573L95.0876 16.9716C95.833 17.4773 95.9669 17.5682 95.9669 18.7035V27.0796C95.9669 28.2255 95.8578 28.3619 94.9574 28.6075ZM118.367 15.1839C114.738 15.1839 111.082 17.3938 111.082 22.5505C111.082 27.4888 114.465 29.8352 118.367 29.8352C122.077 29.8352 125.679 27.5707 125.679 22.4141C125.679 17.5303 122.268 15.1839 118.367 15.1839ZM118.258 16.2206C120.113 16.2206 121.15 17.2574 121.15 22.6869C121.15 27.8435 120.031 28.7985 118.421 28.7985C116.457 28.7985 115.557 27.598 115.557 22.0867C115.557 17.4484 116.566 16.2206 118.258 16.2206ZM127.998 17.121V26.1247C127.998 28.7712 129.308 29.8352 131.736 29.8352C134 29.8352 135.337 28.853 135.992 28.2528V27.4888C135.501 27.598 134.71 27.7344 134.055 27.7344C132.718 27.7344 132.309 27.1887 132.309 25.8518V17.121H135.528L135.883 15.5385H132.309V11.9371H130.781C130.017 14.0925 128.407 15.6477 126.306 16.4662V17.121H127.998ZM143.577 15.1839C140.003 15.1839 136.538 17.7758 136.538 22.4686C136.538 27.0523 138.857 29.8352 143.577 29.8898C146.278 29.8898 148.324 28.4711 149.279 27.4343V26.5339C148.27 27.0523 146.988 27.5434 145.323 27.5434C142.54 27.5434 140.876 26.3429 140.794 21.923H149.689C149.607 17.0392 147.288 15.1839 143.577 15.1839ZM145.378 20.6406L140.767 20.8862C140.876 17.503 141.967 16.1934 143.332 16.1934C144.941 16.1934 145.378 17.3938 145.378 20.6406Z" fill="white" fill-opacity="0.5"/>
</g>
<defs>
<clipPath id="clip0_12122_10271">
<rect width="149.6" height="44" fill="white" transform="translate(0.0742188)"/>
</clipPath>
</defs>
</svg>
