<svg width="36" height="37" viewBox="0 0 36 37" fill="none" xmlns="http://www.w3.org/2000/svg">
<rect x="0.25" y="0.75" width="35.5" height="35.5" rx="17.75" fill="#F5F5F5"/>
<rect x="0.25" y="0.75" width="35.5" height="35.5" rx="17.75" stroke="#E5E5E5" stroke-width="0.5"/>
<path d="M25.5 19C25.5 23.1421 22.1421 26.5 18 26.5M25.5 19C25.5 14.8579 22.1421 11.5 18 11.5M25.5 19H10.5M18 26.5C13.8579 26.5 10.5 23.1421 10.5 19M18 26.5C19.876 24.4462 20.9421 21.781 21 19C20.9421 16.219 19.876 13.5538 18 11.5M18 26.5C16.124 24.4462 15.0579 21.781 15 19C15.0579 16.219 16.124 13.5538 18 11.5M10.5 19C10.5 14.8579 13.8579 11.5 18 11.5" stroke="#0A0A0A" stroke-width="1.5" stroke-linecap="round" stroke-linejoin="round"/>
</svg>
