<svg width="18" height="18" viewBox="0 0 18 18" fill="none" xmlns="http://www.w3.org/2000/svg">
<path d="M9.75364 1.66663C10.5786 1.66883 10.9974 1.67323 11.3589 1.68349L11.5012 1.68863C11.6654 1.69449 11.8275 1.70183 12.0233 1.71063C12.8036 1.74729 13.336 1.87049 13.8031 2.05163C14.2871 2.23789 14.6948 2.49016 15.1026 2.89716C15.4755 3.26375 15.764 3.70719 15.9481 4.19663C16.1292 4.66376 16.2524 5.19616 16.2891 5.97716C16.2979 6.17223 16.3052 6.33429 16.3111 6.49929L16.3155 6.64156C16.3265 7.00236 16.3309 7.42109 16.3324 8.24609L16.3331 8.79316V9.75383C16.3349 10.2887 16.3293 10.8236 16.3162 11.3584L16.3118 11.5006C16.306 11.6656 16.2986 11.8277 16.2898 12.0228C16.2532 12.8038 16.1285 13.3354 15.9481 13.8033C15.7645 14.293 15.4759 14.7365 15.1026 15.1028C14.7359 15.4755 14.2925 15.764 13.8031 15.9483C13.336 16.1294 12.8036 16.2526 12.0233 16.2893C11.8493 16.2975 11.6753 16.3048 11.5012 16.3113L11.3589 16.3157C10.9974 16.326 10.5786 16.3311 9.75364 16.3326L9.20657 16.3333H8.24664C7.7115 16.3351 7.17636 16.3295 6.64137 16.3164L6.49911 16.312C6.32502 16.3054 6.15097 16.2979 5.97697 16.2893C5.19671 16.2526 4.66431 16.1294 4.19644 15.9483C3.70706 15.7645 3.2638 15.4759 2.89771 15.1028C2.52447 14.7363 2.23567 14.2928 2.05144 13.8033C1.87031 13.3362 1.74711 12.8038 1.71044 12.0228C1.70227 11.8488 1.69494 11.6747 1.68844 11.5006L1.68477 11.3584C1.67126 10.8236 1.66515 10.2887 1.66644 9.75383V8.24609C1.66439 7.7112 1.66977 7.1763 1.68257 6.64156L1.68771 6.49929C1.69357 6.33429 1.70091 6.17223 1.70971 5.97716C1.74637 5.19616 1.86957 4.66449 2.05071 4.19663C2.23486 3.70669 2.52423 3.26311 2.89844 2.89716C3.26444 2.52424 3.70741 2.23568 4.19644 2.05163C4.66431 1.87049 5.19597 1.74729 5.97697 1.71063C6.17204 1.70183 6.33484 1.69449 6.49911 1.68863L6.64137 1.68423C7.17611 1.6712 7.71101 1.66557 8.24591 1.66736L9.75364 1.66663ZM8.99977 5.33329C8.02731 5.33329 7.09468 5.7196 6.40705 6.40724C5.71941 7.09487 5.33311 8.0275 5.33311 8.99996C5.33311 9.97242 5.71941 10.9051 6.40705 11.5927C7.09468 12.2803 8.02731 12.6666 8.99977 12.6666C9.97223 12.6666 10.9049 12.2803 11.5925 11.5927C12.2801 10.9051 12.6664 9.97242 12.6664 8.99996C12.6664 8.0275 12.2801 7.09487 11.5925 6.40724C10.9049 5.7196 9.97223 5.33329 8.99977 5.33329ZM8.99977 6.79996C9.28868 6.79991 9.57477 6.85677 9.8417 6.96728C10.1086 7.0778 10.3512 7.23981 10.5555 7.44407C10.7598 7.64832 10.9219 7.89082 11.0325 8.15772C11.1431 8.42462 11.2001 8.71069 11.2001 8.99959C11.2002 9.2885 11.1433 9.57459 11.0328 9.84153C10.9223 10.1085 10.7603 10.351 10.556 10.5553C10.3518 10.7597 10.1093 10.9218 9.84238 11.0324C9.57548 11.143 9.28941 11.1999 9.00051 11.2C8.41703 11.2 7.85745 10.9682 7.44487 10.5556C7.03229 10.143 6.80051 9.58344 6.80051 8.99996C6.80051 8.41648 7.03229 7.8569 7.44487 7.44432C7.85745 7.03174 8.41703 6.79996 9.00051 6.79996M12.8505 4.23329C12.6074 4.23329 12.3742 4.32987 12.2023 4.50178C12.0304 4.67369 11.9338 4.90684 11.9338 5.14996C11.9338 5.39307 12.0304 5.62623 12.2023 5.79814C12.3742 5.97005 12.6074 6.06663 12.8505 6.06663C13.0936 6.06663 13.3268 5.97005 13.4987 5.79814C13.6706 5.62623 13.7672 5.39307 13.7672 5.14996C13.7672 4.90684 13.6706 4.67369 13.4987 4.50178C13.3268 4.32987 13.0936 4.23329 12.8505 4.23329Z" fill="#737373"/>
</svg>
