<svg width="52" height="52" viewBox="0 0 52 52" fill="none" xmlns="http://www.w3.org/2000/svg">
<g clip-path="url(#clip0_12308_2716)">
<rect width="52" height="52" rx="16" fill="white"/>
<g filter="url(#filter0_d_12308_2716)">
<path fill-rule="evenodd" clip-rule="evenodd" d="M15.716 39.2178L12.2766 34.9331C11.4491 33.9023 11 32.6346 11 31.3299V15.815C11 13.8606 12.5636 12.239 14.5807 12.1013L30.5321 11.0122C31.691 10.9331 32.8428 11.2411 33.7948 11.8847L39.3992 15.6739C40.4025 16.3522 41 17.461 41 18.6443V36.2832C41 38.1958 39.4626 39.7793 37.4876 39.9009L19.7833 40.9907C18.2073 41.0877 16.684 40.4237 15.716 39.2178Z" fill="white"/>
<path d="M21.2481 23.5787V23.3756C21.2481 22.8607 21.6605 22.4337 22.192 22.3982L26.0633 22.1397L31.417 30.0235V23.1041L30.039 22.9204V22.824C30.039 22.303 30.4608 21.8732 30.9991 21.8456L34.5216 21.6652V22.1721C34.5216 22.41 34.3446 22.6136 34.1021 22.6546L33.2544 22.798V34.0037L32.1906 34.3695C31.3018 34.6752 30.3124 34.348 29.8036 33.5803L24.6061 25.7372V33.223L26.2058 33.5291L26.1836 33.6775C26.1137 34.1423 25.7124 34.4939 25.227 34.5155L21.2481 34.6926C21.1955 34.1927 21.5701 33.7456 22.0869 33.6913L22.6103 33.6363V23.6552L21.2481 23.5787Z" fill="black"/>
<path fill-rule="evenodd" clip-rule="evenodd" d="M30.6749 12.9668L14.7235 14.0559C13.768 14.1211 13.0273 14.8892 13.0273 15.815V31.3299C13.0273 32.1997 13.3268 33.0448 13.8784 33.7321L17.3178 38.0167C17.8739 38.7094 18.749 39.0909 19.6544 39.0352L37.3586 37.9454C38.266 37.8895 38.9724 37.1619 38.9724 36.2832V18.6443C38.9724 18.1006 38.6979 17.5911 38.2369 17.2795L32.6325 13.4903C32.0613 13.1041 31.3702 12.9193 30.6749 12.9668ZM15.5145 16.057C15.2926 15.8927 15.3982 15.5505 15.6769 15.5306L30.7822 14.4471C31.2635 14.4126 31.7417 14.5451 32.1309 14.8209L35.1617 16.9681C35.2767 17.0496 35.2228 17.2256 35.0803 17.2334L19.0839 18.1034C18.5998 18.1297 18.1219 17.9875 17.737 17.7025L15.5145 16.057ZM18.3336 20.8307C18.3336 20.311 18.7534 19.8818 19.2903 19.8525L36.203 18.9315C36.7263 18.903 37.1667 19.3053 37.1667 19.8118V35.0853C37.1667 35.604 36.7484 36.0328 36.2126 36.0633L19.4069 37.0195C18.8246 37.0527 18.3336 36.6052 18.3336 36.0415V20.8307Z" fill="black"/>
</g>
</g>
<rect x="0.5" y="0.5" width="51" height="51" rx="15.5" stroke="#F5F5F5"/>
<defs>
<filter id="filter0_d_12308_2716" x="4" y="6" width="48" height="48" filterUnits="userSpaceOnUse" color-interpolation-filters="sRGB">
<feFlood flood-opacity="0" result="BackgroundImageFix"/>
<feColorMatrix in="SourceAlpha" type="matrix" values="0 0 0 0 0 0 0 0 0 0 0 0 0 0 0 0 0 0 127 0" result="hardAlpha"/>
<feOffset dx="2" dy="4"/>
<feGaussianBlur stdDeviation="4"/>
<feComposite in2="hardAlpha" operator="out"/>
<feColorMatrix type="matrix" values="0 0 0 0 0.211765 0 0 0 0 0.223529 0 0 0 0 0.290196 0 0 0 0.2 0"/>
<feBlend mode="normal" in2="BackgroundImageFix" result="effect1_dropShadow_12308_2716"/>
<feBlend mode="normal" in="SourceGraphic" in2="effect1_dropShadow_12308_2716" result="shape"/>
</filter>
<clipPath id="clip0_12308_2716">
<rect width="52" height="52" rx="16" fill="white"/>
</clipPath>
</defs>
</svg>
