<svg width="52" height="52" viewBox="0 0 52 52" fill="none" xmlns="http://www.w3.org/2000/svg">
<rect x="0.5" y="0.5" width="51" height="51" rx="15.5" fill="white"/>
<rect x="0.5" y="0.5" width="51" height="51" rx="15.5" stroke="#F5F5F5"/>
<g filter="url(#filter0_d_12308_4432)">
<path d="M36.5002 24.9998C37.8808 24.9998 39 23.8806 39 22.5C39 21.1194 37.8807 20.0002 36.5001 20.0002C35.1194 20.0002 34 21.1195 34 22.5002V24.9998H36.5002ZM29.5 24.9998C30.8807 24.9998 32 23.8805 32 22.4998V15.5002C32 14.1195 30.8807 13.0002 29.5 13.0002C28.1193 13.0002 27 14.1195 27 15.5002V22.4998C27 23.8805 28.1193 24.9998 29.5 24.9998Z" fill="#2EB67D"/>
<path d="M15.4998 27.0002C14.1192 27.0002 13 28.1194 13 29.5C13 30.8806 14.1193 31.9998 15.4999 31.9998C16.8806 31.9998 18 30.8805 18 29.4998V27.0002H15.4998ZM22.5 27.0002C21.1193 27.0002 20 28.1195 20 29.5002V36.4998C20 37.8805 21.1193 38.9998 22.5 38.9998C23.8807 38.9998 25 37.8805 25 36.4998V29.5002C25 28.1195 23.8807 27.0002 22.5 27.0002Z" fill="#E01E5A"/>
<path d="M27.0004 36.5002C27.0004 37.8808 28.1196 39 29.5002 39C30.8808 39 32 37.8807 32 36.5001C32 35.1194 30.8807 34 29.5 34L27.0004 34L27.0004 36.5002ZM27.0004 29.5C27.0004 30.8807 28.1197 32 29.5004 32L36.5 32C37.8807 32 39 30.8807 39 29.5C39 28.1193 37.8807 27 36.5 27L29.5004 27C28.1197 27 27.0004 28.1193 27.0004 29.5Z" fill="#ECB22E"/>
<path d="M24.9996 15.4998C24.9996 14.1192 23.8804 13 22.4998 13C21.1192 13 20 14.1193 20 15.4999C20 16.8806 21.1193 18 22.5 18L24.9996 18L24.9996 15.4998ZM24.9996 22.5C24.9996 21.1193 23.8803 20 22.4996 20L15.5 20C14.1193 20 13 21.1193 13 22.5C13 23.8807 14.1193 25 15.5 25L22.4996 25C23.8803 25 24.9996 23.8807 24.9996 22.5Z" fill="#36C5F0"/>
</g>
<defs>
<filter id="filter0_d_12308_4432" x="4" y="6" width="48" height="48" filterUnits="userSpaceOnUse" color-interpolation-filters="sRGB">
<feFlood flood-opacity="0" result="BackgroundImageFix"/>
<feColorMatrix in="SourceAlpha" type="matrix" values="0 0 0 0 0 0 0 0 0 0 0 0 0 0 0 0 0 0 127 0" result="hardAlpha"/>
<feOffset dx="2" dy="4"/>
<feGaussianBlur stdDeviation="4"/>
<feComposite in2="hardAlpha" operator="out"/>
<feColorMatrix type="matrix" values="0 0 0 0 0.211765 0 0 0 0 0.223529 0 0 0 0 0.290196 0 0 0 0.2 0"/>
<feBlend mode="normal" in2="BackgroundImageFix" result="effect1_dropShadow_12308_4432"/>
<feBlend mode="normal" in="SourceGraphic" in2="effect1_dropShadow_12308_4432" result="shape"/>
</filter>
</defs>
</svg>
