<svg width="52" height="52" viewBox="0 0 52 52" fill="none" xmlns="http://www.w3.org/2000/svg">
<rect x="0.5" y="0.5" width="51" height="51" rx="15.5" fill="white"/>
<rect x="0.5" y="0.5" width="51" height="51" rx="15.5" stroke="#F5F5F5"/>
<g filter="url(#filter0_d_12303_3652)">
<path fill-rule="evenodd" clip-rule="evenodd" d="M35.0133 14H17.0019C15.344 14 14 15.3431 14 17V35C14 36.6569 15.344 38 17.0019 38H35.0133C36.6653 37.9916 38 36.6509 38 35V17C38 15.3491 36.6653 14.0084 35.0133 14ZM19 17H23C24.1046 17 25 17.8954 25 19V33C25 34.1046 24.1046 35 23 35H19C17.8954 35 17 34.1046 17 33V19C17 17.8954 17.8954 17 19 17ZM33 17H29C27.8954 17 27 17.8954 27 19V26C27 27.1046 27.8954 28 29 28H33C34.1046 28 35 27.1046 35 26V19C35 17.8954 34.1046 17 33 17Z" fill="url(#paint0_linear_12303_3652)"/>
</g>
<defs>
<filter id="filter0_d_12303_3652" x="4" y="6" width="48" height="48" filterUnits="userSpaceOnUse" color-interpolation-filters="sRGB">
<feFlood flood-opacity="0" result="BackgroundImageFix"/>
<feColorMatrix in="SourceAlpha" type="matrix" values="0 0 0 0 0 0 0 0 0 0 0 0 0 0 0 0 0 0 127 0" result="hardAlpha"/>
<feOffset dx="2" dy="4"/>
<feGaussianBlur stdDeviation="4"/>
<feComposite in2="hardAlpha" operator="out"/>
<feColorMatrix type="matrix" values="0 0 0 0 0.211765 0 0 0 0 0.223529 0 0 0 0 0.290196 0 0 0 0.2 0"/>
<feBlend mode="normal" in2="BackgroundImageFix" result="effect1_dropShadow_12303_3652"/>
<feBlend mode="normal" in="SourceGraphic" in2="effect1_dropShadow_12303_3652" result="shape"/>
</filter>
<linearGradient id="paint0_linear_12303_3652" x1="26.0076" y1="38" x2="26.0076" y2="14" gradientUnits="userSpaceOnUse">
<stop stop-color="#0052CC"/>
<stop offset="0.51698" stop-color="#217EF8"/>
<stop offset="1" stop-color="#2684FF"/>
</linearGradient>
</defs>
</svg>
