<svg width="36" height="37" viewBox="0 0 36 37" fill="none" xmlns="http://www.w3.org/2000/svg">
<rect x="0.25" y="0.75" width="35.5" height="35.5" rx="17.75" fill="#F5F5F5"/>
<rect x="0.25" y="0.75" width="35.5" height="35.5" rx="17.75" stroke="#E5E5E5" stroke-width="0.5"/>
<path d="M26.25 25.7502V24.2502C26.2495 23.5855 26.0283 22.9397 25.621 22.4144C25.2138 21.889 24.6436 21.5138 24 21.3477" stroke="#0A0A0A" stroke-width="1.5" stroke-linecap="round" stroke-linejoin="round"/>
<path d="M21.75 25.75V24.25C21.75 23.4544 21.4339 22.6913 20.8713 22.1287C20.3087 21.5661 19.5456 21.25 18.75 21.25H12.75C11.9544 21.25 11.1913 21.5661 10.6287 22.1287C10.0661 22.6913 9.75 23.4544 9.75 24.25V25.75" stroke="#0A0A0A" stroke-width="1.5" stroke-linecap="round" stroke-linejoin="round"/>
<path d="M21 12.3477C21.6453 12.5129 22.2173 12.8882 22.6257 13.4144C23.0342 13.9406 23.2559 14.5878 23.2559 15.2539C23.2559 15.92 23.0342 16.5672 22.6257 17.0934C22.2173 17.6196 21.6453 17.9949 21 18.1602" stroke="#0A0A0A" stroke-width="1.5" stroke-linecap="round" stroke-linejoin="round"/>
<path d="M15.75 18.25C17.4069 18.25 18.75 16.9069 18.75 15.25C18.75 13.5931 17.4069 12.25 15.75 12.25C14.0931 12.25 12.75 13.5931 12.75 15.25C12.75 16.9069 14.0931 18.25 15.75 18.25Z" stroke="#0A0A0A" stroke-width="1.5" stroke-linecap="round" stroke-linejoin="round"/>
</svg>
