<svg width="40" height="40" viewBox="0 0 40 40" fill="none" xmlns="http://www.w3.org/2000/svg">
<rect x="0.25" y="0.25" width="39.5" height="39.5" rx="9.75" fill="white"/>
<rect x="0.25" y="0.25" width="39.5" height="39.5" rx="9.75" stroke="#A199FF" stroke-width="0.5"/>
<g filter="url(#filter0_i_12216_3412)">
<rect x="6" y="6" width="28" height="28" rx="8" fill="#A199FF"/>
<rect x="6.25" y="6.25" width="27.5" height="27.5" rx="7.75" stroke="#A199FF" stroke-width="0.5"/>
<path d="M15 18.2363H13.75C13.0596 18.2363 12.5 17.6707 12.5 16.973V16.8044C12.5 16.1387 12.8879 15.5356 13.4898 15.2652L19.3231 12.6452C19.754 12.4516 20.246 12.4516 20.6769 12.6452L26.5102 15.2652C27.1121 15.5356 27.5 16.1387 27.5 16.8044V16.973C27.5 17.6707 26.9404 18.2363 26.25 18.2363H25M15 18.2363V24.1314M15 18.2363H18.3333M15 24.1314H13.75C13.0596 24.1314 12.5 24.6969 12.5 25.3946V26.2368C12.5 26.9344 13.0596 27.5 13.75 27.5H26.25C26.9404 27.5 27.5 26.9344 27.5 26.2368V25.3946C27.5 24.6969 26.9404 24.1314 26.25 24.1314H25M15 24.1314H18.3333M25 18.2363V24.1314M25 18.2363H21.6667M25 24.1314H21.6667M21.6667 18.2363V24.1314M21.6667 18.2363H18.3333M21.6667 24.1314H18.3333M18.3333 18.2363V24.1314" stroke="#372E9B" stroke-width="2" stroke-linecap="round" stroke-linejoin="round"/>
</g>
<defs>
<filter id="filter0_i_12216_3412" x="6" y="2" width="28" height="32" filterUnits="userSpaceOnUse" color-interpolation-filters="sRGB">
<feFlood flood-opacity="0" result="BackgroundImageFix"/>
<feBlend mode="normal" in="SourceGraphic" in2="BackgroundImageFix" result="shape"/>
<feColorMatrix in="SourceAlpha" type="matrix" values="0 0 0 0 0 0 0 0 0 0 0 0 0 0 0 0 0 0 127 0" result="hardAlpha"/>
<feOffset dy="-4"/>
<feGaussianBlur stdDeviation="4"/>
<feComposite in2="hardAlpha" operator="arithmetic" k2="-1" k3="1"/>
<feColorMatrix type="matrix" values="0 0 0 0 1 0 0 0 0 1 0 0 0 0 1 0 0 0 0.64 0"/>
<feBlend mode="normal" in2="shape" result="effect1_innerShadow_12216_3412"/>
</filter>
</defs>
</svg>
