<svg width="40" height="40" viewBox="0 0 40 40" fill="none" xmlns="http://www.w3.org/2000/svg">
<rect x="0.25" y="0.25" width="39.5" height="39.5" rx="9.75" stroke="#00E599" stroke-width="0.5"/>
<g filter="url(#filter0_i_12216_768)">
<rect x="6" y="6" width="28" height="28" rx="8" fill="#00E599"/>
<rect x="6.25" y="6.25" width="27.5" height="27.5" rx="7.75" stroke="#00E599" stroke-width="0.5"/>
<path opacity="0.12" d="M15.8687 23.4599L15 29.9999L19.5884 27.2469C19.7381 27.1571 19.8129 27.1122 19.8928 27.0947C19.9634 27.0791 20.0366 27.0791 20.1072 27.0947C20.1871 27.1122 20.2619 27.1571 20.4116 27.2469L25 29.9999L24.1319 23.457L23.8827 24.0587C23.728 24.4322 23.4312 24.729 23.0577 24.8838C22.6841 25.0385 22.2644 25.0385 21.8909 24.8838L20.583 24.342C20.2094 24.1876 19.7899 24.1879 19.4166 24.3428L18.1077 24.8842C17.7343 25.0386 17.315 25.0385 16.9418 24.8839C16.5685 24.7293 16.2719 24.4328 16.1171 24.0597L15.8687 23.4599Z" fill="#00452E"/>
<path d="M15.8687 23.4599L15 30L19.5884 27.247C19.7381 27.1572 19.8129 27.1123 19.8928 27.0947C19.9634 27.0792 20.0366 27.0792 20.1072 27.0947C20.1871 27.1123 20.2619 27.1572 20.4116 27.247L25 30L24.1319 23.4571M24.4259 12.2489C24.5803 12.6224 24.8768 12.9193 25.25 13.0743L26.5589 13.6165C26.9325 13.7712 27.2292 14.068 27.384 14.4415C27.5387 14.8151 27.5387 15.2348 27.384 15.6084L26.8422 16.9164C26.6874 17.2901 26.6872 17.7102 26.8427 18.0837L27.3835 19.3913C27.4602 19.5764 27.4997 19.7747 27.4997 19.975C27.4998 20.1752 27.4603 20.3736 27.3837 20.5586C27.3071 20.7436 27.1947 20.9118 27.0531 21.0534C26.9114 21.195 26.7433 21.3073 26.5582 21.3839L25.2503 21.9256C24.8768 22.0801 24.5799 22.3765 24.4249 22.7498L23.8827 24.0588C23.728 24.4323 23.4312 24.7291 23.0577 24.8838C22.6841 25.0386 22.2644 25.0386 21.8909 24.8838L20.583 24.342C20.2094 24.1877 19.7899 24.188 19.4166 24.3429L18.1077 24.8843C17.7343 25.0387 17.315 25.0386 16.9418 24.884C16.5685 24.7293 16.2719 24.4329 16.1171 24.0598L15.5748 22.7504C15.4204 22.3769 15.1239 22.08 14.7506 21.925L13.4417 21.3828C13.0684 21.2282 12.7717 20.9316 12.6169 20.5582C12.4621 20.1849 12.4619 19.7654 12.6163 19.3919L13.1581 18.0839C13.3124 17.7104 13.3121 17.2908 13.1572 16.9175L12.6162 15.6076C12.5395 15.4226 12.5 15.2243 12.5 15.024C12.5 14.8237 12.5394 14.6254 12.616 14.4403C12.6927 14.2553 12.805 14.0872 12.9467 13.9456C13.0883 13.804 13.2565 13.6917 13.4415 13.6151L14.7495 13.0733C15.1227 12.919 15.4194 12.6229 15.5745 12.25L16.1166 10.9411C16.2714 10.5676 16.5681 10.2708 16.9417 10.116C17.3152 9.96132 17.7349 9.96132 18.1084 10.116L19.4164 10.6578C19.7899 10.8122 20.2095 10.8119 20.5828 10.657L21.8922 10.1169C22.2657 9.96224 22.6853 9.96228 23.0588 10.117C23.4322 10.2717 23.729 10.5684 23.8837 10.9418L24.426 12.2511L24.4259 12.2489Z" stroke="#00452E" stroke-width="2" stroke-linecap="round" stroke-linejoin="round"/>
</g>
<defs>
<filter id="filter0_i_12216_768" x="6" y="2" width="28" height="32" filterUnits="userSpaceOnUse" color-interpolation-filters="sRGB">
<feFlood flood-opacity="0" result="BackgroundImageFix"/>
<feBlend mode="normal" in="SourceGraphic" in2="BackgroundImageFix" result="shape"/>
<feColorMatrix in="SourceAlpha" type="matrix" values="0 0 0 0 0 0 0 0 0 0 0 0 0 0 0 0 0 0 127 0" result="hardAlpha"/>
<feOffset dy="-4"/>
<feGaussianBlur stdDeviation="4"/>
<feComposite in2="hardAlpha" operator="arithmetic" k2="-1" k3="1"/>
<feColorMatrix type="matrix" values="0 0 0 0 1 0 0 0 0 1 0 0 0 0 1 0 0 0 0.64 0"/>
<feBlend mode="normal" in2="shape" result="effect1_innerShadow_12216_768"/>
</filter>
</defs>
</svg>
