<svg width="40" height="40" viewBox="0 0 40 40" fill="none" xmlns="http://www.w3.org/2000/svg">
<rect x="0.25" y="0.25" width="39.5" height="39.5" rx="9.75" fill="white"/>
<rect x="0.25" y="0.25" width="39.5" height="39.5" rx="9.75" stroke="#52C9E0" stroke-width="0.5"/>
<g filter="url(#filter0_i_12216_3436)">
<rect x="6" y="6" width="28" height="28" rx="8" fill="#52C9E0"/>
<rect x="6.25" y="6.25" width="27.5" height="27.5" rx="7.75" stroke="#52C9E0" stroke-width="0.5"/>
<path opacity="0.12" d="M24.833 19.1667H20.833V27.5H27.4997V21.8334C27.4997 20.8999 27.4997 20.4332 27.318 20.0767C27.1582 19.7631 26.9033 19.5081 26.5897 19.3483C26.2331 19.1667 25.7664 19.1667 24.833 19.1667Z" fill="black"/>
<path d="M20.8337 19.1667H24.8337C25.7671 19.1667 26.2338 19.1667 26.5903 19.3483C26.9039 19.5081 27.1589 19.7631 27.3187 20.0767C27.5003 20.4332 27.5003 20.8999 27.5003 21.8333V27.5M20.8337 27.5V15.1667C20.8337 14.2332 20.8337 13.7665 20.652 13.41C20.4922 13.0964 20.2372 12.8414 19.9236 12.6817C19.5671 12.5 19.1004 12.5 18.167 12.5H15.167C14.2336 12.5 13.7669 12.5 13.4103 12.6817C13.0967 12.8414 12.8418 13.0964 12.682 13.41C12.5003 13.7665 12.5003 14.2332 12.5003 15.1667V27.5M28.3337 27.5H11.667M15.417 15.8333H17.917M15.417 19.1667H17.917M15.417 22.5H17.917" stroke="#372E9B" stroke-width="2" stroke-linecap="round" stroke-linejoin="round"/>
</g>
<defs>
<filter id="filter0_i_12216_3436" x="6" y="2" width="28" height="32" filterUnits="userSpaceOnUse" color-interpolation-filters="sRGB">
<feFlood flood-opacity="0" result="BackgroundImageFix"/>
<feBlend mode="normal" in="SourceGraphic" in2="BackgroundImageFix" result="shape"/>
<feColorMatrix in="SourceAlpha" type="matrix" values="0 0 0 0 0 0 0 0 0 0 0 0 0 0 0 0 0 0 127 0" result="hardAlpha"/>
<feOffset dy="-4"/>
<feGaussianBlur stdDeviation="4"/>
<feComposite in2="hardAlpha" operator="arithmetic" k2="-1" k3="1"/>
<feColorMatrix type="matrix" values="0 0 0 0 1 0 0 0 0 1 0 0 0 0 1 0 0 0 0.64 0"/>
<feBlend mode="normal" in2="shape" result="effect1_innerShadow_12216_3436"/>
</filter>
</defs>
</svg>
