<svg width="44" height="44" viewBox="0 0 44 44" fill="none" xmlns="http://www.w3.org/2000/svg">
<rect width="44" height="44" rx="10" fill="#5B49E9"/>
<path d="M21.25 28.25H19C17.9 28.25 17 29.15 17 30.25V30.5H16C15.59 30.5 15.25 30.84 15.25 31.25C15.25 31.66 15.59 32 16 32H28C28.41 32 28.75 31.66 28.75 31.25C28.75 30.84 28.41 30.5 28 30.5H27V30.25C27 29.15 26.1 28.25 25 28.25H22.75V25.96C22.5 25.99 22.25 26 22 26C21.75 26 21.5 25.99 21.25 25.96V28.25Z" fill="white"/>
<path d="M28.4793 21.64C29.1393 21.39 29.7193 20.98 30.1793 20.52C31.1093 19.49 31.7193 18.26 31.7193 16.82C31.7193 15.38 30.5893 14.25 29.1493 14.25H28.5893C27.9393 12.92 26.5793 12 24.9993 12H18.9993C17.4193 12 16.0593 12.92 15.4093 14.25H14.8493C13.4093 14.25 12.2793 15.38 12.2793 16.82C12.2793 18.26 12.8893 19.49 13.8193 20.52C14.2793 20.98 14.8593 21.39 15.5193 21.64C16.5593 24.2 19.0593 26 21.9993 26C24.9393 26 27.4393 24.2 28.4793 21.64ZM24.8393 18.45L24.2193 19.21C24.1193 19.32 24.0493 19.54 24.0593 19.69L24.1193 20.67C24.1593 21.27 23.7293 21.58 23.1693 21.36L22.2593 21C22.1193 20.95 21.8793 20.95 21.7393 21L20.8293 21.36C20.2693 21.58 19.8393 21.27 19.8793 20.67L19.9393 19.69C19.9493 19.54 19.8793 19.32 19.7793 19.21L19.1593 18.45C18.7693 17.99 18.9393 17.48 19.5193 17.33L20.4693 17.09C20.6193 17.05 20.7993 16.91 20.8793 16.78L21.4093 15.96C21.7393 15.45 22.2593 15.45 22.5893 15.96L23.1193 16.78C23.1993 16.91 23.3793 17.05 23.5293 17.09L24.4793 17.33C25.0593 17.48 25.2293 17.99 24.8393 18.45Z" fill="white"/>
</svg>
