<svg width="44" height="44" viewBox="0 0 44 44" fill="none" xmlns="http://www.w3.org/2000/svg">
<rect width="44" height="44" rx="10" fill="#33CFFF"/>
<path d="M27.1797 15.25C25.4697 15.25 23.4297 15.9 23.4297 19V25C23.4297 28.1 25.4697 28.75 27.1797 28.75C28.8897 28.75 30.9297 28.1 30.9297 25V19C30.9297 15.9 28.8897 15.25 27.1797 15.25Z" fill="white"/>
<path d="M16.8203 15.25C15.1103 15.25 13.0703 15.9 13.0703 19V25C13.0703 28.1 15.1103 28.75 16.8203 28.75C18.5303 28.75 20.5703 28.1 20.5703 25V19C20.5703 15.9 18.5303 15.25 16.8203 15.25Z" fill="white"/>
<path d="M23.4303 21.25H20.5703V22.75H23.4303V21.25Z" fill="white"/>
<path d="M32.5 25.25C32.09 25.25 31.75 24.91 31.75 24.5V19.5C31.75 19.09 32.09 18.75 32.5 18.75C32.91 18.75 33.25 19.09 33.25 19.5V24.5C33.25 24.91 32.91 25.25 32.5 25.25Z" fill="white"/>
<path d="M11.5 25.25C11.09 25.25 10.75 24.91 10.75 24.5V19.5C10.75 19.09 11.09 18.75 11.5 18.75C11.91 18.75 12.25 19.09 12.25 19.5V24.5C12.25 24.91 11.91 25.25 11.5 25.25Z" fill="white"/>
</svg>
