<svg width="44" height="44" viewBox="0 0 44 44" fill="none" xmlns="http://www.w3.org/2000/svg">
<rect width="44" height="44" rx="10" fill="#40C4AA"/>
<path d="M16.67 24H14C12.9 24 12 24.9 12 26V31C12 31.55 12.45 32 13 32H16.67C17.22 32 17.67 31.55 17.67 31V25C17.67 24.45 17.22 24 16.67 24Z" fill="white"/>
<path d="M23.3302 20H20.6602C19.5602 20 18.6602 20.9 18.6602 22V31C18.6602 31.55 19.1102 32 19.6602 32H24.3302C24.8802 32 25.3302 31.55 25.3302 31V22C25.3302 20.9 24.4402 20 23.3302 20Z" fill="white"/>
<path d="M30.0001 27H27.3301C26.7801 27 26.3301 27.45 26.3301 28V31C26.3301 31.55 26.7801 32 27.3301 32H31.0001C31.5501 32 32.0001 31.55 32.0001 31V29C32.0001 27.9 31.1001 27 30.0001 27Z" fill="white"/>
<path d="M25.0095 14.85C25.3195 14.54 25.4395 14.17 25.3395 13.85C25.2395 13.53 24.9295 13.3 24.4895 13.23L23.5295 13.07C23.4895 13.07 23.3995 13 23.3795 12.96L22.8495 11.9C22.4495 11.09 21.5395 11.09 21.1395 11.9L20.6095 12.96C20.5995 13 20.5095 13.07 20.4695 13.07L19.5095 13.23C19.0695 13.3 18.7695 13.53 18.6595 13.85C18.5595 14.17 18.6795 14.54 18.9895 14.85L19.7295 15.6C19.7695 15.63 19.7995 15.75 19.7895 15.79L19.5795 16.71C19.4195 17.4 19.6795 17.71 19.8495 17.83C20.0195 17.95 20.3895 18.11 20.9995 17.75L21.8995 17.22C21.9395 17.19 22.0695 17.19 22.1095 17.22L22.9995 17.75C23.2795 17.92 23.5095 17.97 23.6895 17.97C23.8995 17.97 24.0495 17.89 24.1395 17.83C24.3095 17.71 24.5695 17.4 24.4095 16.71L24.1995 15.79C24.1895 15.74 24.2195 15.63 24.2595 15.6L25.0095 14.85Z" fill="white"/>
</svg>
