<svg width="44" height="44" viewBox="0 0 44 44" fill="none" xmlns="http://www.w3.org/2000/svg">
<rect width="44" height="44" rx="10" fill="#FFBE4C"/>
<path d="M30.5491 19.44H29.4491C29.2991 19.44 29.1491 19.47 29.0091 19.51L24.0191 14.52C24.4991 13.9 24.4591 13.01 23.8891 12.45L23.1091 11.67C22.5191 11.08 21.4791 11.08 20.8791 11.67L20.0991 12.45C19.5391 13.01 19.4991 13.9 19.9791 14.52L14.9891 19.51C14.8491 19.47 14.6991 19.44 14.5491 19.44H13.4491C12.5791 19.44 11.8691 20.15 11.8691 21.02V22.12C11.8691 22.99 12.5791 23.7 13.4491 23.7H14.5491C15.4191 23.7 16.1291 22.99 16.1291 22.12V21.02C16.1291 20.87 16.0991 20.72 16.0591 20.58L21.0491 15.59C21.3191 15.8 21.6591 15.91 21.9991 15.91C22.3391 15.91 22.6791 15.79 22.9591 15.58L27.9491 20.57C27.9091 20.71 27.8791 20.86 27.8791 21.01V22.11C27.8791 22.98 28.5891 23.69 29.4591 23.69H30.5591C31.4291 23.69 32.1391 22.98 32.1391 22.11V21.01C32.1191 20.14 31.4191 19.44 30.5491 19.44Z" fill="white"/>
<path d="M25.7491 26.55L24.1091 28H19.8491L18.2091 26.55C17.2591 25.77 17.2591 25.17 17.9791 24.25L20.8691 20.59C21.0691 20.34 21.2991 20.17 21.5591 20.08C21.8291 19.99 22.1191 19.99 22.3991 20.08C22.6491 20.17 22.8791 20.34 23.0891 20.59L25.9791 24.25C26.6991 25.16 26.6691 25.73 25.7491 26.55Z" fill="white"/>
<path d="M23.2909 32.0001H20.7009C19.7809 32.0001 19.0909 31.2501 19.2709 30.4501L19.5809 29.0601C19.6409 28.7801 19.8909 28.5901 20.1709 28.5901H23.8209C24.1009 28.5901 24.3409 28.7801 24.4109 29.0601L24.7209 30.4501C24.9209 31.3001 24.2709 32.0001 23.2909 32.0001Z" fill="white"/>
</svg>
