<svg width="44" height="44" viewBox="0 0 44 44" fill="none" xmlns="http://www.w3.org/2000/svg">
<rect width="44" height="44" rx="10" fill="#ED8296"/>
<path d="M25.2592 31.9999C25.1992 31.9999 25.1292 31.9899 25.0692 31.9699C23.0592 31.3999 20.9492 31.3999 18.9392 31.9699C18.5692 32.0699 18.1792 31.8599 18.0792 31.4899C17.9692 31.1199 18.1892 30.7299 18.5592 30.6299C20.8192 29.9899 23.1992 29.9899 25.4592 30.6299C25.8292 30.7399 26.0492 31.1199 25.9392 31.4899C25.8392 31.7999 25.5592 31.9999 25.2592 31.9999Z" fill="white"/>
<path d="M29.2107 16.36C28.1707 14.26 26.1607 12.71 23.8307 12.2C21.3907 11.66 18.8907 12.24 16.9807 13.78C15.0607 15.31 13.9707 17.6 13.9707 20.05C13.9707 22.64 15.5207 25.35 17.8607 26.92V27.75C17.8507 28.03 17.8407 28.46 18.1807 28.81C18.5307 29.17 19.0507 29.21 19.4607 29.21H24.5907C25.1307 29.21 25.5407 29.06 25.8207 28.78C26.2007 28.39 26.1907 27.89 26.1807 27.62V26.92C29.2807 24.83 31.2307 20.42 29.2107 16.36ZM23.7207 21.62L22.6507 23.48C22.5107 23.72 22.2607 23.86 22.0007 23.86C21.8707 23.86 21.7407 23.83 21.6307 23.76C21.2707 23.55 21.1507 23.09 21.3507 22.74L22.2007 21.26H21.3607C20.8607 21.26 20.4507 21.04 20.2307 20.67C20.0107 20.29 20.0307 19.83 20.2807 19.39L21.3507 17.53C21.5607 17.17 22.0207 17.05 22.3707 17.25C22.7307 17.46 22.8507 17.92 22.6507 18.27L21.8007 19.75H22.6407C23.1407 19.75 23.5507 19.97 23.7707 20.34C23.9907 20.72 23.9707 21.19 23.7207 21.62Z" fill="white"/>
</svg>
