<svg width="44" height="44" viewBox="0 0 44 44" fill="none" xmlns="http://www.w3.org/2000/svg">
<rect width="44" height="44" rx="10" fill="#1A1B25"/>
<path d="M26.19 12H17.81C14.17 12 12 14.17 12 17.81V26.18C12 29.83 14.17 32 17.81 32H26.18C29.82 32 31.99 29.83 31.99 26.19V17.81C32 14.17 29.83 12 26.19 12ZM18.5 16.38C19.53 16.38 20.38 17.22 20.38 18.26C20.38 19.3 19.54 20.14 18.5 20.14C17.46 20.14 16.62 19.28 16.62 18.25C16.62 17.22 17.47 16.38 18.5 16.38ZM22 29.08C19.31 29.08 17.12 26.89 17.12 24.2C17.12 23.5 17.69 22.92 18.39 22.92H25.59C26.29 22.92 26.86 23.49 26.86 24.2C26.88 26.89 24.69 29.08 22 29.08ZM25.5 20.12C24.47 20.12 23.62 19.28 23.62 18.24C23.62 17.2 24.46 16.36 25.5 16.36C26.54 16.36 27.38 17.2 27.38 18.24C27.38 19.28 26.53 20.12 25.5 20.12Z" fill="white"/>
</svg>
