<svg width="36" height="36" viewBox="0 0 36 36" fill="none" xmlns="http://www.w3.org/2000/svg">
<g filter="url(#filter0_i_8118_2662)">
<rect width="36" height="36" rx="18" fill="#A199FF"/>
<rect x="0.25" y="0.25" width="35.5" height="35.5" rx="17.75" stroke="#A199FF" stroke-width="0.5"/>
<path d="M24 24.75V23.25C24 22.4544 23.6839 21.6913 23.1213 21.1287C22.5587 20.5661 21.7956 20.25 21 20.25H15C14.2044 20.25 13.4413 20.5661 12.8787 21.1287C12.3161 21.6913 12 22.4544 12 23.25V24.75" stroke="white" stroke-width="1.5" stroke-linecap="round" stroke-linejoin="round"/>
<path d="M18 17.25C19.6569 17.25 21 15.9069 21 14.25C21 12.5931 19.6569 11.25 18 11.25C16.3431 11.25 15 12.5931 15 14.25C15 15.9069 16.3431 17.25 18 17.25Z" stroke="white" stroke-width="1.5" stroke-linecap="round" stroke-linejoin="round"/>
</g>
<defs>
<filter id="filter0_i_8118_2662" x="0" y="-4" width="36" height="40" filterUnits="userSpaceOnUse" color-interpolation-filters="sRGB">
<feFlood flood-opacity="0" result="BackgroundImageFix"/>
<feBlend mode="normal" in="SourceGraphic" in2="BackgroundImageFix" result="shape"/>
<feColorMatrix in="SourceAlpha" type="matrix" values="0 0 0 0 0 0 0 0 0 0 0 0 0 0 0 0 0 0 127 0" result="hardAlpha"/>
<feOffset dy="-4"/>
<feGaussianBlur stdDeviation="4"/>
<feComposite in2="hardAlpha" operator="arithmetic" k2="-1" k3="1"/>
<feColorMatrix type="matrix" values="0 0 0 0 1 0 0 0 0 1 0 0 0 0 1 0 0 0 0.64 0"/>
<feBlend mode="normal" in2="shape" result="effect1_innerShadow_8118_2662"/>
</filter>
</defs>
</svg>
