<svg width="36" height="36" viewBox="0 0 36 36" fill="none" xmlns="http://www.w3.org/2000/svg">
<g filter="url(#filter0_i_8118_2654)">
<rect width="36" height="36" rx="18" fill="#00E599"/>
<rect x="0.25" y="0.25" width="35.5" height="35.5" rx="17.75" stroke="#00E599" stroke-width="0.5"/>
<path d="M13.5 24.75C14.7426 24.75 15.75 23.7426 15.75 22.5C15.75 21.2574 14.7426 20.25 13.5 20.25C12.2574 20.25 11.25 21.2574 11.25 22.5C11.25 23.7426 12.2574 24.75 13.5 24.75Z" stroke="#EEFAFC" stroke-width="1.5" stroke-linecap="round" stroke-linejoin="round"/>
<path d="M22.5 15.75C22.5 17.5402 21.7888 19.2571 20.523 20.523C19.2571 21.7888 17.5402 22.5 15.75 22.5" stroke="#EEFAFC" stroke-width="1.5" stroke-linecap="round" stroke-linejoin="round"/>
<path d="M22.5 15.75C23.7426 15.75 24.75 14.7426 24.75 13.5C24.75 12.2574 23.7426 11.25 22.5 11.25C21.2574 11.25 20.25 12.2574 20.25 13.5C20.25 14.7426 21.2574 15.75 22.5 15.75Z" stroke="#EEFAFC" stroke-width="1.5" stroke-linecap="round" stroke-linejoin="round"/>
<path d="M13.5 11.25V20.25" stroke="#EEFAFC" stroke-width="1.5" stroke-linecap="round" stroke-linejoin="round"/>
</g>
<defs>
<filter id="filter0_i_8118_2654" x="0" y="-4" width="36" height="40" filterUnits="userSpaceOnUse" color-interpolation-filters="sRGB">
<feFlood flood-opacity="0" result="BackgroundImageFix"/>
<feBlend mode="normal" in="SourceGraphic" in2="BackgroundImageFix" result="shape"/>
<feColorMatrix in="SourceAlpha" type="matrix" values="0 0 0 0 0 0 0 0 0 0 0 0 0 0 0 0 0 0 127 0" result="hardAlpha"/>
<feOffset dy="-4"/>
<feGaussianBlur stdDeviation="4"/>
<feComposite in2="hardAlpha" operator="arithmetic" k2="-1" k3="1"/>
<feColorMatrix type="matrix" values="0 0 0 0 1 0 0 0 0 1 0 0 0 0 1 0 0 0 0.64 0"/>
<feBlend mode="normal" in2="shape" result="effect1_innerShadow_8118_2654"/>
</filter>
</defs>
</svg>
