<svg width="40" height="40" viewBox="0 0 40 40" fill="none" xmlns="http://www.w3.org/2000/svg">
<rect width="40" height="40" rx="10" fill="#FF7442"/>
<g clip-path="url(#clip0_8153_1378)">
<mask id="mask0_8153_1378" style="mask-type:luminance" maskUnits="userSpaceOnUse" x="10" y="10" width="20" height="20">
<path d="M30 10H10V30H30V10Z" fill="white"/>
</mask>
<g mask="url(#mask0_8153_1378)">
<path fill-rule="evenodd" clip-rule="evenodd" d="M17.5549 27.8786L17.5549 27.8787L16.2914 26.6152C16.2971 26.6927 16.3 26.771 16.3 26.85C16.3 28.5897 14.8897 30 13.15 30C11.4103 30 10 28.5897 10 26.85C10 25.1103 11.4103 23.7 13.15 23.7C13.229 23.7 13.3073 23.7029 13.3848 23.7086L12.0863 22.4101L12.0865 22.4098C10.7958 21.0931 10 19.2895 10 17.3C10 13.2683 13.2683 10 17.3 10C19.2895 10 21.0931 10.7958 22.4098 12.0865L22.41 12.0863L22.4491 12.1253C22.4576 12.1338 22.4662 12.1424 22.4747 12.151L23.7086 13.3849C23.7029 13.3073 23.7 13.229 23.7 13.15C23.7 11.4103 25.1103 10 26.85 10C28.5897 10 30 11.4103 30 13.15C30 14.8897 28.5897 16.3 26.85 16.3C26.771 16.3 26.6927 16.2971 26.6151 16.2914L27.8492 17.5255C27.8577 17.5339 27.8661 17.5423 27.8745 17.5508L27.8786 17.5549C29.1898 18.8746 30 20.6927 30 22.7C30 26.7317 26.7317 30 22.7 30C20.6927 30 18.8746 29.1898 17.5549 27.8786Z" fill="white"/>
</g>
</g>
<defs>
<clipPath id="clip0_8153_1378">
<rect width="20" height="20" fill="white" transform="translate(10 10)"/>
</clipPath>
</defs>
</svg>
