<svg width="40" height="40" viewBox="0 0 40 40" fill="none" xmlns="http://www.w3.org/2000/svg">
<rect width="40" height="40" rx="10" fill="#FFBE4C"/>
<g clip-path="url(#clip0_8153_1412)">
<mask id="mask0_8153_1412" style="mask-type:luminance" maskUnits="userSpaceOnUse" x="10" y="10" width="20" height="20">
<path d="M30 10H10V30H30V10Z" fill="white"/>
</mask>
<g mask="url(#mask0_8153_1412)">
<path fill-rule="evenodd" clip-rule="evenodd" d="M15 10H10V20H15C12.2386 20 10 22.2386 10 25V30H20V25C20 27.7614 22.2386 30 25 30H30V20H25C27.7614 20 30 17.7614 30 15V10H20V15C20 12.2386 17.7614 10 15 10ZM20 20H15C17.7614 20 20 22.2386 20 25V20ZM20 20V15C20 17.7614 22.2386 20 25 20H20Z" fill="white"/>
</g>
</g>
<defs>
<clipPath id="clip0_8153_1412">
<rect width="20" height="20" fill="white" transform="translate(10 10)"/>
</clipPath>
</defs>
</svg>
