<svg width="40" height="40" viewBox="0 0 40 40" fill="none" xmlns="http://www.w3.org/2000/svg">
<rect width="40" height="40" rx="10" fill="#40C4AA"/>
<g clip-path="url(#clip0_8153_1424)">
<mask id="mask0_8153_1424" style="mask-type:luminance" maskUnits="userSpaceOnUse" x="10" y="10" width="20" height="20">
<path d="M30 10H10V30H30V10Z" fill="white"/>
</mask>
<g mask="url(#mask0_8153_1424)">
<path fill-rule="evenodd" clip-rule="evenodd" d="M19.9998 10H13.8C11.7013 10 10 11.7013 10 13.8V26.2C10 28.2987 11.7013 30 13.8 30H19.9998C19.9999 29.9834 20 29.9667 20 29.95C20 29.9667 20.0001 29.9834 20.0002 30H26.2C28.2987 30 30 28.2987 30 26.2V13.8C30 11.7013 28.2987 10 26.2 10H20.0002C20.0271 12.766 22.2776 15 25.05 15H25C22.2386 15 20 17.2386 20 20C20 17.2386 17.7614 15 15 15H14.95C17.7224 15 19.9729 12.766 19.9998 10ZM20 20C20 22.5286 18.123 24.6188 15.6863 24.9533C18.1263 25.3097 20 27.4111 20 29.95C20 27.4111 21.8737 25.3097 24.3137 24.9533C21.877 24.6188 20 22.5286 20 20Z" fill="white"/>
</g>
</g>
<defs>
<clipPath id="clip0_8153_1424">
<rect width="20" height="20" fill="white" transform="translate(10 10)"/>
</clipPath>
</defs>
</svg>
